Varta-Bold.ufo
<glyph name="quotesingle" format="1">
  <advance width="550"/>
  <unicode hex="0027"/>
  <outline>
    <contour>
      <point x="161" y="1410" type="line" name="hr00"/>
      <point x="168" y="1190" type="line"/>
      <point x="211" y="791" type="line"/>
      <point x="337" y="791" type="line"/>
      <point x="380" y="1190" type="line"/>
      <point x="388" y="1410" type="line"/>
    </contour>
  </outline>
</glyph>
<glyph name="comma" format="1">
  <advance width="550"/>
  <unicode hex="002C"/>
  <outline>
    <contour>
      <point x="95" y="-265" type="curve" name="hr01"/>
      <point x="144" y="-387" type="line"/>
      <point x="338" y="-317"/>
      <point x="451" y="-147"/>
      <point x="451" y="48" type="curve" smooth="yes"/>
      <point x="451" y="192"/>
      <point x="390" y="279"/>
      <point x="283" y="279" type="curve" name="hr02" smooth="yes"/>
      <point x="202" y="279"/>
      <point x="134" y="226"/>
      <point x="134" y="141" type="curve" smooth="yes"/>
      <point x="134" y="52"/>
      <point x="202" y="3"/>
      <point x="279" y="3" type="curve" smooth="yes"/>
      <point x="285" y="3"/>
      <point x="291" y="3"/>
      <point x="298" y="5" type="curve"/>
      <point x="298" y="-104"/>
      <point x="224" y="-213"/>
    </contour>
  </outline>
</glyph>
<glyph name="zero" format="1">
  <advance width="1042"/>
  <unicode hex="0030"/>
  <outline>
    <contour>
      <point x="85" y="674" type="curve" name="hr00" smooth="yes"/>
      <point x="85" y="230"/>
      <point x="246" y="-25"/>
      <point x="521" y="-25" type="curve" smooth="yes"/>
      <point x="795" y="-25"/>
      <point x="958" y="230"/>
      <point x="958" y="674" type="curve" smooth="yes"/>
      <point x="958" y="1120"/>
      <point x="795" y="1365"/>
      <point x="521" y="1365" type="curve" smooth="yes"/>
      <point x="246" y="1365"/>
      <point x="85" y="1120"/>
    </contour>
    <contour>
      <point x="748" y="674" type="curve" smooth="yes"/>
      <point x="748" y="298"/>
      <point x="658" y="148"/>
      <point x="521" y="148" type="curve" smooth="yes"/>
      <point x="384" y="148"/>
      <point x="294" y="298"/>
      <point x="294" y="674" type="curve" smooth="yes"/>
      <point x="294" y="1051"/>
      <point x="384" y="1193"/>
      <point x="521" y="1193" type="curve" smooth="yes"/>
      <point x="658" y="1193"/>
      <point x="748" y="1051"/>
    </contour>
  </outline>
</glyph>
<glyph name="I" format="1">
  <advance width="561"/>
  <unicode hex="0049"/>
  <outline>
    <contour>
      <point x="392" y="1340" type="line" name="hr00"/>
      <point x="170" y="1340" type="line"/>
      <point x="170" y="0" type="line"/>
      <point x="392" y="0" type="line"/>
    </contour>
    <contour>
      <point x="236" y="0" type="move" name="mark0"/>
    </contour>
    <contour>
      <point x="281" y="800" type="move" name="top"/>
    </contour>
  </outline>
</glyph>
<glyph name="K" format="1">
  <advance width="1206"/>
  <unicode hex="004B"/>
  <outline>
    <contour>
      <point x="392" y="1340" type="line" name="hr00"/>
      <point x="170" y="1340" type="line"/>
      <point x="170" y="0" type="line"/>
      <point x="392" y="0" type="line"/>
      <point x="392" y="400" type="line"/>
      <point x="593" y="646" type="line"/>
      <point x="965" y="0" type="line"/>
      <point x="1209" y="0" type="line"/>
      <point x="726" y="820" type="line"/>
      <point x="1141" y="1340" type="line"/>
      <point x="894" y="1340" type="line"/>
      <point x="396" y="711" type="line"/>
      <point x="392" y="711" type="line"/>
    </contour>
    <contour>
      <point x="671" y="-45" type="move" name="mark0"/>
    </contour>
    <contour>
      <point x="673" y="800" type="move" name="top"/>
    </contour>
  </outline>
</glyph>
<glyph name="R" format="1">
  <advance width="1211"/>
  <unicode hex="0052"/>
  <outline>
    <contour>
      <point x="613" y="534" type="line" name="hr00"/>
      <point x="901" y="0" type="line"/>
      <point x="1151" y="0" type="line"/>
      <point x="834" y="567" type="line"/>
      <point x="1000" y="620"/>
      <point x="1101" y="736"/>
      <point x="1101" y="952" type="curve" smooth="yes"/>
      <point x="1101" y="1252"/>
      <point x="906" y="1340"/>
      <point x="630" y="1340" type="curve" smooth="yes"/>
      <point x="170" y="1340" type="line"/>
      <point x="170" y="0" type="line"/>
      <point x="392" y="0" type="line"/>
      <point x="392" y="534" type="line"/>
    </contour>
    <contour>
      <point x="601" y="712" type="curve"/>
      <point x="392" y="712" type="line"/>
      <point x="392" y="1164" type="line"/>
      <point x="605" y="1164" type="line" smooth="yes"/>
      <point x="794" y="1164"/>
      <point x="883" y="1117"/>
      <point x="883" y="952" type="curve" smooth="yes"/>
      <point x="883" y="782"/>
      <point x="791" y="712"/>
    </contour>
    <contour>
      <point x="645" y="-45" type="move" name="mark0"/>
    </contour>
    <contour>
      <point x="622" y="800" type="move" name="top"/>
    </contour>
  </outline>
</glyph>
<glyph name="h" format="1">
  <advance width="1135"/>
  <unicode hex="0068"/>
  <outline>
    <contour>
      <point x="373" y="1450" type="line" name="hr00"/>
      <point x="155" y="1450" type="line"/>
      <point x="155" y="0" type="line"/>
      <point x="373" y="0" type="line"/>
      <point x="373" y="708" type="line"/>
      <point x="460" y="794"/>
      <point x="522" y="840"/>
      <point x="614" y="840" type="curve" smooth="yes"/>
      <point x="731" y="840"/>
      <point x="778" y="776"/>
      <point x="778" y="604" type="curve" smooth="yes"/>
      <point x="778" y="0" type="line"/>
      <point x="997" y="0" type="line"/>
      <point x="997" y="633" type="line" smooth="yes"/>
      <point x="997" y="887"/>
      <point x="906" y="1028"/>
      <point x="689" y="1028" type="curve" smooth="yes"/>
      <point x="551" y="1028"/>
      <point x="451" y="955"/>
      <point x="364" y="873" type="curve"/>
      <point x="373" y="1069" type="line"/>
    </contour>
    <contour>
      <point x="591" y="-45" type="move" name="mark0"/>
    </contour>
    <contour>
      <point x="576" y="800" type="move" name="top"/>
    </contour>
  </outline>
</glyph>
<glyph name="v" format="1">
  <advance width="1000"/>
  <unicode hex="0076"/>
  <outline>
    <contour>
      <point x="248" y="1003" type="line" name="hr00"/>
      <point x="25" y="1003" type="line"/>
      <point x="377" y="0" type="line"/>
      <point x="632" y="0" type="line"/>
      <point x="976" y="1003" type="line"/>
      <point x="763" y="1003" type="line"/>
      <point x="596" y="471" type="line"/>
      <point x="568" y="372"/>
      <point x="537" y="269"/>
      <point x="510" y="170" type="curve"/>
      <point x="502" y="170" type="line"/>
      <point x="473" y="269"/>
      <point x="442" y="372"/>
      <point x="414" y="471" type="curve"/>
    </contour>
    <contour>
      <point x="503" y="-45" type="move" name="mark0"/>
    </contour>
    <contour>
      <point x="500" y="800" type="move" name="top"/>
    </contour>
  </outline>
</glyph>
<glyph name="x" format="1">
  <advance width="966"/>
  <unicode hex="0078"/>
  <outline>
    <contour>
      <point x="51" y="1003" type="line" name="hr00"/>
      <point x="349" y="523" type="line"/>
      <point x="29" y="0" type="line"/>
      <point x="257" y="0" type="line"/>
      <point x="371" y="207" type="line"/>
      <point x="400" y="268"/>
      <point x="432" y="327"/>
      <point x="462" y="385" type="curve"/>
      <point x="471" y="385" type="line"/>
      <point x="506" y="327"/>
      <point x="540" y="266"/>
      <point x="574" y="207" type="curve"/>
      <point x="701" y="0" type="line"/>
      <point x="938" y="0" type="line"/>
      <point x="618" y="499" type="line"/>
      <point x="917" y="1003" type="line"/>
      <point x="689" y="1003" type="line"/>
      <point x="588" y="805" type="line"/>
      <point x="561" y="750"/>
      <point x="531" y="692"/>
      <point x="506" y="636" type="curve"/>
      <point x="498" y="636" type="line"/>
      <point x="465" y="692"/>
      <point x="433" y="750"/>
      <point x="404" y="805" type="curve"/>
      <point x="288" y="1003" type="line"/>
    </contour>
    <contour>
      <point x="483" y="-45" type="move" name="mark0"/>
    </contour>
    <contour>
      <point x="483" y="800" type="move" name="top"/>
    </contour>
  </outline>
</glyph>
<glyph name="y" format="1">
  <advance width="998"/>
  <unicode hex="0079"/>
  <outline>
    <contour>
      <point x="194" y="-240" type="curve" name="hr01" smooth="yes"/>
      <point x="171" y="-240"/>
      <point x="141" y="-232"/>
      <point x="121" y="-226" type="curve"/>
      <point x="81" y="-396" type="line" name="hr02"/>
      <point x="116" y="-408"/>
      <point x="156" y="-416"/>
      <point x="208" y="-416" type="curve" name="hr03" smooth="yes"/>
      <point x="423" y="-416"/>
      <point x="528" y="-274"/>
      <point x="608" y="-55" type="curve"/>
      <point x="974" y="1003" type="line"/>
      <point x="760" y="1003" type="line"/>
      <point x="604" y="496" type="line"/>
      <point x="578" y="404"/>
      <point x="554" y="305"/>
      <point x="527" y="212" type="curve"/>
      <point x="519" y="212" type="line"/>
      <point x="490" y="308"/>
      <point x="459" y="407"/>
      <point x="428" y="496" type="curve" smooth="yes"/>
      <point x="248" y="1003" type="line"/>
      <point x="25" y="1003" type="line"/>
      <point x="421" y="9" type="line"/>
      <point x="401" y="-57" type="line"/>
      <point x="366" y="-164"/>
      <point x="302" y="-240"/>
    </contour>
    <contour>
      <point x="431" y="-495" type="move" name="mark0"/>
    </contour>
    <contour>
      <point x="499" y="800" type="move" name="top"/>
    </contour>
  </outline>
</glyph>
<glyph name="yen" format="1">
  <advance width="1042"/>
  <unicode hex="00A5"/>
  <outline>
    <contour>
      <point x="404" y="983" type="curve" name="hr00"/>
      <point x="265" y="1304" type="line"/>
      <point x="39" y="1304" type="line"/>
      <point x="360" y="670" type="line"/>
      <point x="86" y="670" type="line"/>
      <point x="86" y="556" type="line"/>
      <point x="411" y="556" type="line"/>
      <point x="411" y="430" type="line"/>
      <point x="86" y="430" type="line"/>
      <point x="86" y="315" type="line"/>
      <point x="411" y="315" type="line"/>
      <point x="411" y="0" type="line"/>
      <point x="629" y="0" type="line"/>
      <point x="629" y="315" type="line"/>
      <point x="957" y="315" type="line"/>
      <point x="957" y="430" type="line"/>
      <point x="629" y="430" type="line"/>
      <point x="629" y="556" type="line"/>
      <point x="957" y="556" type="line"/>
      <point x="957" y="670" type="line"/>
      <point x="681" y="670" type="line"/>
      <point x="1004" y="1304" type="line"/>
      <point x="782" y="1304" type="line"/>
      <point x="644" y="983" type="line" smooth="yes"/>
      <point x="605" y="894"/>
      <point x="569" y="804"/>
      <point x="527" y="711" type="curve"/>
      <point x="519" y="711" type="line"/>
      <point x="479" y="803"/>
      <point x="442" y="893"/>
    </contour>
  </outline>
</glyph>
<glyph name="section" format="1">
  <advance width="1042"/>
  <unicode hex="00A7"/>
  <outline>
    <contour>
      <point x="759" y="1144" type="curve" name="hr01"/>
      <point x="861" y="1282" type="line"/>
      <point x="781" y="1347"/>
      <point x="666" y="1406"/>
      <point x="526" y="1406" type="curve" smooth="yes"/>
      <point x="311" y="1406"/>
      <point x="194" y="1279"/>
      <point x="194" y="1122" type="curve" name="hr02" smooth="yes"/>
      <point x="194" y="1050"/>
      <point x="218" y="996"/>
      <point x="257" y="953" type="curve"/>
      <point x="156" y="893"/>
      <point x="86" y="802"/>
      <point x="86" y="689" type="curve" name="hr03" smooth="yes"/>
      <point x="86" y="308"/>
      <point x="641" y="345"/>
      <point x="641" y="139" type="curve" smooth="yes"/>
      <point x="641" y="72"/>
      <point x="586" y="19"/>
      <point x="486" y="19" type="curve" smooth="yes"/>
      <point x="389" y="19"/>
      <point x="312" y="58"/>
      <point x="245" y="124" type="curve"/>
      <point x="116" y="9" type="line"/>
      <point x="203" y="-92"/>
      <point x="340" y="-147"/>
      <point x="486" y="-147" type="curve" smooth="yes"/>
      <point x="703" y="-147"/>
      <point x="840" y="-20"/>
      <point x="840" y="151" type="curve" smooth="yes"/>
      <point x="840" y="217"/>
      <point x="820" y="270"/>
      <point x="785" y="314" type="curve"/>
      <point x="890" y="376"/>
      <point x="957" y="457"/>
      <point x="957" y="582" type="curve" name="hr04" smooth="yes"/>
      <point x="957" y="956"/>
      <point x="393" y="937"/>
      <point x="393" y="1129" type="curve" smooth="yes"/>
      <point x="393" y="1191"/>
      <point x="437" y="1239"/>
      <point x="536" y="1239" type="curve" smooth="yes"/>
      <point x="619" y="1239"/>
      <point x="694" y="1198"/>
    </contour>
    <contour>
      <point x="768" y="564" type="curve" smooth="yes"/>
      <point x="768" y="488"/>
      <point x="733" y="445"/>
      <point x="665" y="411" type="curve"/>
      <point x="500" y="505"/>
      <point x="274" y="543"/>
      <point x="274" y="704" type="curve" smooth="yes"/>
      <point x="274" y="775"/>
      <point x="313" y="821"/>
      <point x="379" y="860" type="curve"/>
      <point x="545" y="768"/>
      <point x="768" y="728"/>
    </contour>
  </outline>
</glyph>
<glyph name="multiply" format="1">
  <advance width="1042"/>
  <unicode hex="00D7"/>
  <outline>
    <contour>
      <point x="408" y="675" type="line" name="hr00"/>
      <point x="100" y="362" type="line"/>
      <point x="214" y="247" type="line"/>
      <point x="522" y="562" type="line"/>
      <point x="828" y="247" type="line"/>
      <point x="941" y="362" type="line"/>
      <point x="634" y="675" type="line"/>
      <point x="941" y="988" type="line"/>
      <point x="828" y="1103" type="line"/>
      <point x="522" y="789" type="line"/>
      <point x="214" y="1103" type="line"/>
      <point x="100" y="988" type="line"/>
    </contour>
  </outline>
</glyph>
<glyph name="Eogonek" format="1">
  <advance width="1088"/>
  <unicode hex="0118"/>
  <outline>
    <contour>
      <point x="968" y="1340" type="line" name="hr00"/>
      <point x="170" y="1340" type="line"/>
      <point x="170" y="0" type="line"/>
      <point x="788" y="0" type="line"/>
      <point x="713" y="-47"/>
      <point x="631" y="-141"/>
      <point x="631" y="-259" type="curve" smooth="yes"/>
      <point x="631" y="-378"/>
      <point x="725" y="-443"/>
      <point x="841" y="-443" type="curve" smooth="yes"/>
      <point x="902" y="-443"/>
      <point x="980" y="-415"/>
      <point x="1025" y="-380" type="curve"/>
      <point x="968" y="-265" type="line"/>
      <point x="946" y="-282"/>
      <point x="920" y="-294"/>
      <point x="890" y="-294" type="curve" smooth="yes"/>
      <point x="843" y="-294"/>
      <point x="796" y="-266"/>
      <point x="796" y="-206" type="curve" smooth="yes"/>
      <point x="796" y="-105"/>
      <point x="887" y="-9"/>
      <point x="980" y="0" type="curve"/>
      <point x="989" y="0" type="line"/>
      <point x="989" y="187" type="line"/>
      <point x="392" y="187" type="line"/>
      <point x="392" y="606" type="line"/>
      <point x="879" y="606" type="line"/>
      <point x="879" y="791" type="line"/>
      <point x="392" y="791" type="line"/>
      <point x="392" y="1155" type="line"/>
      <point x="968" y="1155" type="line"/>
    </contour>
    <contour>
      <point x="583" y="1386" type="move" name="mark0"/>
    </contour>
  </outline>
</glyph>
<glyph name="dotlessi" format="1">
  <advance width="527"/>
  <unicode hex="0131"/>
  <outline>
    <contour>
      <point x="373" y="1003" type="line" name="hr00"/>
      <point x="155" y="1003" type="line"/>
      <point x="155" y="0" type="line"/>
      <point x="373" y="0" type="line"/>
    </contour>
    <contour>
      <point x="332" y="0" type="move" name="mark0"/>
    </contour>
    <contour>
      <point x="264" y="800" type="move" name="top"/>
    </contour>
  </outline>
</glyph>
<glyph name="uni015E" format="1">
  <advance width="1103"/>
  <unicode hex="015E"/>
  <outline>
    <contour>
      <point x="760" y="730" type="curve" name="hr00"/>
      <point x="576" y="807" type="line" smooth="yes"/>
      <point x="467" y="853"/>
      <point x="359" y="895"/>
      <point x="359" y="1006" type="curve" smooth="yes"/>
      <point x="359" y="1109"/>
      <point x="448" y="1174"/>
      <point x="580" y="1174" type="curve" smooth="yes"/>
      <point x="697" y="1174"/>
      <point x="791" y="1128"/>
      <point x="875" y="1054" type="curve"/>
      <point x="989" y="1195" type="line"/>
      <point x="886" y="1299"/>
      <point x="738" y="1365"/>
      <point x="580" y="1365" type="curve" smooth="yes"/>
      <point x="324" y="1365"/>
      <point x="137" y="1204"/>
      <point x="137" y="993" type="curve" smooth="yes"/>
      <point x="137" y="797"/>
      <point x="278" y="694"/>
      <point x="408" y="640" type="curve"/>
      <point x="593" y="560" type="line"/>
      <point x="716" y="505"/>
      <point x="806" y="469"/>
      <point x="806" y="352" type="curve" smooth="yes"/>
      <point x="806" y="240"/>
      <point x="718" y="167"/>
      <point x="561" y="167" type="curve" smooth="yes"/>
      <point x="432" y="167"/>
      <point x="303" y="231"/>
      <point x="207" y="324" type="curve"/>
      <point x="77" y="172" type="line"/>
      <point x="186" y="62"/>
      <point x="332" y="-7"/>
      <point x="491" y="-21" type="curve"/>
      <point x="424" y="-155" type="line"/>
      <point x="509" y="-176"/>
      <point x="548" y="-203"/>
      <point x="548" y="-249" type="curve" smooth="yes"/>
      <point x="548" y="-304"/>
      <point x="476" y="-332"/>
      <point x="372" y="-344" type="curve"/>
      <point x="390" y="-442" type="line"/>
      <point x="560" y="-430"/>
      <point x="712" y="-372"/>
      <point x="712" y="-245" type="curve" smooth="yes"/>
      <point x="712" y="-161"/>
      <point x="659" y="-120"/>
      <point x="592" y="-97" type="curve"/>
      <point x="627" y="-21" type="line"/>
      <point x="881" y="5"/>
      <point x="1032" y="171"/>
      <point x="1032" y="370" type="curve" smooth="yes"/>
      <point x="1032" y="565"/>
      <point x="918" y="663"/>
    </contour>
  </outline>
</glyph>
<glyph name="uni015F" format="1">
  <advance width="877"/>
  <unicode hex="015F"/>
  <outline>
    <contour>
      <point x="689" y="774" type="curve" name="hr01"/>
      <point x="790" y="909" type="line"/>
      <point x="709" y="972"/>
      <point x="598" y="1028"/>
      <point x="462" y="1028" type="curve" smooth="yes"/>
      <point x="239" y="1028"/>
      <point x="101" y="902"/>
      <point x="101" y="732" type="curve" smooth="yes"/>
      <point x="101" y="564"/>
      <point x="254" y="490"/>
      <point x="387" y="441" type="curve" smooth="yes"/>
      <point x="495" y="400"/>
      <point x="607" y="360"/>
      <point x="607" y="271" type="curve" smooth="yes"/>
      <point x="607" y="197"/>
      <point x="552" y="141"/>
      <point x="436" y="141" type="curve" name="hr02" smooth="yes"/>
      <point x="330" y="141"/>
      <point x="243" y="187"/>
      <point x="155" y="256" type="curve"/>
      <point x="52" y="115" type="line"/>
      <point x="141" y="40"/>
      <point x="268" y="-14"/>
      <point x="395" y="-24" type="curve"/>
      <point x="330" y="-155" type="line"/>
      <point x="417" y="-176"/>
      <point x="456" y="-203"/>
      <point x="456" y="-249" type="curve" name="hr03" smooth="yes"/>
      <point x="456" y="-304"/>
      <point x="382" y="-332"/>
      <point x="280" y="-344" type="curve"/>
      <point x="298" y="-442" type="line"/>
      <point x="467" y="-430"/>
      <point x="619" y="-372"/>
      <point x="619" y="-245" type="curve" smooth="yes"/>
      <point x="619" y="-161"/>
      <point x="567" y="-120"/>
      <point x="499" y="-97" type="curve"/>
      <point x="537" y="-15" type="line"/>
      <point x="718" y="18"/>
      <point x="815" y="140"/>
      <point x="815" y="284" type="curve" name="hr04" smooth="yes"/>
      <point x="815" y="472"/>
      <point x="660" y="536"/>
      <point x="522" y="586" type="curve"/>
      <point x="413" y="628"/>
      <point x="310" y="660"/>
      <point x="310" y="742" type="curve" smooth="yes"/>
      <point x="310" y="808"/>
      <point x="360" y="862"/>
      <point x="467" y="862" type="curve" smooth="yes"/>
      <point x="548" y="862"/>
      <point x="619" y="826"/>
    </contour>
  </outline>
</glyph>
<glyph name="Ohorn" format="1">
  <advance width="1369"/>
  <unicode hex="01A0"/>
  <outline>
    <contour>
      <point x="1282" y="1504"/>
      <point x="1259" y="1555"/>
      <point x="1231" y="1592" type="curve" name="hr01"/>
      <point x="1077" y="1521" type="line"/>
      <point x="1094" y="1495"/>
      <point x="1107" y="1465"/>
      <point x="1107" y="1433" type="curve" smooth="yes"/>
      <point x="1107" y="1357"/>
      <point x="1058" y="1320"/>
      <point x="958" y="1300" type="curve"/>
      <point x="878" y="1343"/>
      <point x="786" y="1365"/>
      <point x="684" y="1365" type="curve" smooth="yes"/>
      <point x="339" y="1365"/>
      <point x="97" y="1109"/>
      <point x="97" y="676" type="curve" smooth="yes"/>
      <point x="97" y="243"/>
      <point x="339" y="-25"/>
      <point x="684" y="-25" type="curve" smooth="yes"/>
      <point x="1030" y="-25"/>
      <point x="1270" y="243"/>
      <point x="1270" y="676" type="curve" name="hr02" smooth="yes"/>
      <point x="1270" y="916"/>
      <point x="1195" y="1101"/>
      <point x="1070" y="1220" type="curve"/>
      <point x="1199" y="1253"/>
      <point x="1282" y="1324"/>
      <point x="1282" y="1447" type="curve" name="hr03" smooth="yes"/>
    </contour>
    <contour>
      <point x="902" y="1174"/>
      <point x="1043" y="985"/>
      <point x="1043" y="676" type="curve" name="hr04" smooth="yes"/>
      <point x="1043" y="366"/>
      <point x="902" y="167"/>
      <point x="684" y="167" type="curve" smooth="yes"/>
      <point x="466" y="167"/>
      <point x="324" y="366"/>
      <point x="324" y="676" type="curve" smooth="yes"/>
      <point x="324" y="985"/>
      <point x="466" y="1174"/>
      <point x="684" y="1174" type="curve" smooth="yes"/>
    </contour>
  </outline>
</glyph>
<glyph name="uhorn" format="1">
  <advance width="1133"/>
  <unicode hex="01B0"/>
  <outline>
    <contour>
      <point x="1116" y="1295" type="curve" name="hr01"/>
      <point x="963" y="1225" type="line"/>
      <point x="979" y="1199"/>
      <point x="992" y="1168"/>
      <point x="992" y="1135" type="curve" smooth="yes"/>
      <point x="992" y="1037"/>
      <point x="912" y="1011"/>
      <point x="823" y="1003" type="curve"/>
      <point x="760" y="1003" type="line" name="hr02"/>
      <point x="760" y="310" type="line"/>
      <point x="679" y="207"/>
      <point x="618" y="163"/>
      <point x="526" y="163" type="curve" smooth="yes"/>
      <point x="411" y="163"/>
      <point x="362" y="231"/>
      <point x="362" y="401" type="curve" smooth="yes"/>
      <point x="362" y="1003" type="line"/>
      <point x="142" y="1003" type="line"/>
      <point x="142" y="373" type="line" smooth="yes"/>
      <point x="142" y="119"/>
      <point x="236" y="-25"/>
      <point x="451" y="-25" type="curve" smooth="yes"/>
      <point x="589" y="-25"/>
      <point x="686" y="44"/>
      <point x="775" y="150" type="curve"/>
      <point x="782" y="150" type="line"/>
      <point x="799" y="0" type="line" name="hr03"/>
      <point x="979" y="0" type="line"/>
      <point x="979" y="929" type="line"/>
      <point x="1077" y="957"/>
      <point x="1168" y="1023"/>
      <point x="1168" y="1151" type="curve" name="hr04" smooth="yes"/>
      <point x="1168" y="1208"/>
      <point x="1144" y="1258"/>
    </contour>
    <contour>
      <point x="600" y="-45" type="move" name="mark0"/>
    </contour>
  </outline>
</glyph>
<glyph name="uni01EB" format="1">
  <advance width="1120"/>
  <unicode hex="01EB"/>
  <outline>
    <contour>
      <point x="523" y="-22" type="curve" name="hr00"/>
      <point x="476" y="-61"/>
      <point x="409" y="-143"/>
      <point x="409" y="-246" type="curve" smooth="yes"/>
      <point x="409" y="-364"/>
      <point x="496" y="-425"/>
      <point x="606" y="-425" type="curve" smooth="yes"/>
      <point x="663" y="-425"/>
      <point x="741" y="-399"/>
      <point x="785" y="-365" type="curve"/>
      <point x="735" y="-262" type="line"/>
      <point x="710" y="-276"/>
      <point x="685" y="-287"/>
      <point x="655" y="-287" type="curve" smooth="yes"/>
      <point x="608" y="-287"/>
      <point x="564" y="-260"/>
      <point x="564" y="-199" type="curve" smooth="yes"/>
      <point x="564" y="-129"/>
      <point x="611" y="-49"/>
      <point x="706" y="-5" type="curve" smooth="yes"/>
      <point x="902" y="85"/>
      <point x="1034" y="226"/>
      <point x="1034" y="501" type="curve" smooth="yes"/>
      <point x="1034" y="835"/>
      <point x="809" y="1028"/>
      <point x="560" y="1028" type="curve" smooth="yes"/>
      <point x="311" y="1028"/>
      <point x="86" y="835"/>
      <point x="86" y="501" type="curve" smooth="yes"/>
      <point x="86" y="187"/>
      <point x="286" y="-3"/>
    </contour>
    <contour>
      <point x="560" y="155" type="curve" smooth="yes"/>
      <point x="408" y="155"/>
      <point x="312" y="292"/>
      <point x="312" y="501" type="curve" smooth="yes"/>
      <point x="312" y="709"/>
      <point x="408" y="849"/>
      <point x="560" y="849" type="curve" smooth="yes"/>
      <point x="714" y="849"/>
      <point x="809" y="709"/>
      <point x="809" y="501" type="curve" smooth="yes"/>
      <point x="809" y="292"/>
      <point x="714" y="155"/>
    </contour>
    <contour>
      <point x="560" y="1048" type="move" name="mark0"/>
    </contour>
  </outline>
</glyph>
<glyph name="uni0259" format="1">
  <advance width="1033"/>
  <unicode hex="0259"/>
  <outline>
    <contour>
      <point x="75" y="460" type="curve" name="hr00" smooth="yes"/>
      <point x="75" y="169"/>
      <point x="230" y="-25"/>
      <point x="496" y="-25" type="curve" smooth="yes"/>
      <point x="742" y="-25"/>
      <point x="947" y="176"/>
      <point x="947" y="503" type="curve" smooth="yes"/>
      <point x="947" y="832"/>
      <point x="751" y="1028"/>
      <point x="494" y="1028" type="curve" smooth="yes"/>
      <point x="360" y="1028"/>
      <point x="238" y="983"/>
      <point x="139" y="917" type="curve"/>
      <point x="215" y="779" type="line"/>
      <point x="289" y="827"/>
      <point x="366" y="858"/>
      <point x="459" y="858" type="curve" smooth="yes"/>
      <point x="618" y="858"/>
      <point x="716" y="749"/>
      <point x="731" y="566" type="curve"/>
      <point x="85" y="566" type="line"/>
      <point x="81" y="541"/>
      <point x="75" y="503"/>
    </contour>
    <contour>
      <point x="266" y="425" type="curve"/>
      <point x="734" y="425" type="line"/>
      <point x="714" y="241"/>
      <point x="624" y="147"/>
      <point x="491" y="147" type="curve" smooth="yes"/>
      <point x="348" y="147"/>
      <point x="266" y="243"/>
    </contour>
    <contour>
      <point x="502" y="0" type="move" name="mark0"/>
    </contour>
  </outline>
</glyph>
<glyph name="s.sups" format="1">
  <advance width="591"/>
  <unicode hex="02E2"/>
  <outline>
    <contour>
      <point x="109" y="709" type="curve" name="hr00"/>
      <point x="36" y="606" type="line"/>
      <point x="103" y="554"/>
      <point x="199" y="516"/>
      <point x="294" y="516" type="curve" smooth="yes"/>
      <point x="456" y="516"/>
      <point x="553" y="605"/>
      <point x="553" y="726" type="curve" smooth="yes"/>
      <point x="553" y="848"/>
      <point x="451" y="890"/>
      <point x="361" y="924" type="curve" smooth="yes"/>
      <point x="288" y="951"/>
      <point x="219" y="970"/>
      <point x="219" y="1023" type="curve" smooth="yes"/>
      <point x="219" y="1061"/>
      <point x="250" y="1094"/>
      <point x="314" y="1094" type="curve" smooth="yes"/>
      <point x="370" y="1094"/>
      <point x="414" y="1071"/>
      <point x="463" y="1037" type="curve"/>
      <point x="537" y="1135" type="line"/>
      <point x="481" y="1177"/>
      <point x="409" y="1214"/>
      <point x="309" y="1214" type="curve" smooth="yes"/>
      <point x="161" y="1214"/>
      <point x="69" y="1126"/>
      <point x="69" y="1016" type="curve" smooth="yes"/>
      <point x="69" y="902"/>
      <point x="168" y="852"/>
      <point x="258" y="818" type="curve"/>
      <point x="331" y="789"/>
      <point x="402" y="768"/>
      <point x="402" y="714" type="curve" smooth="yes"/>
      <point x="402" y="668"/>
      <point x="365" y="635"/>
      <point x="298" y="635" type="curve" smooth="yes"/>
      <point x="232" y="635"/>
      <point x="170" y="664"/>
    </contour>
  </outline>
</glyph>
<glyph name="uni0326" format="1">
  <advance width="0"/>
  <unicode hex="0326"/>
  <outline>
    <contour>
      <point x="-231" y="-83" type="curve" name="hr00"/>
      <point x="-277" y="-175" type="line"/>
      <point x="-217" y="-190"/>
      <point x="-180" y="-212"/>
      <point x="-180" y="-259" type="curve" smooth="yes"/>
      <point x="-180" y="-309"/>
      <point x="-253" y="-332"/>
      <point x="-356" y="-345" type="curve"/>
      <point x="-336" y="-444" type="line"/>
      <point x="-165" y="-433"/>
      <point x="-11" y="-375"/>
      <point x="-11" y="-247" type="curve" smooth="yes"/>
      <point x="-11" y="-150"/>
      <point x="-72" y="-102"/>
    </contour>
  </outline>
</glyph>
<glyph name="rVocalic-deva" format="1">
  <advance width="1520"/>
  <unicode hex="090B"/>
  <outline>
    <contour>
      <point x="726" y="467" type="line"/>
      <point x="730" y="595" type="line"/>
      <point x="489" y="912"/>
      <point x="384" y="937"/>
      <point x="273" y="938" type="curve" smooth="yes"/>
      <point x="175" y="939"/>
      <point x="101" y="902"/>
      <point x="36" y="861" type="curve"/>
      <point x="118" y="681" type="line"/>
      <point x="200" y="722"/>
      <point x="254" y="741"/>
      <point x="303" y="741" type="curve" smooth="yes"/>
      <point x="383" y="740"/>
      <point x="455" y="683"/>
      <point x="607" y="523" type="curve"/>
      <point x="608" y="587" type="line"/>
      <point x="104" y="218" type="line"/>
      <point x="230" y="67" type="line"/>
    </contour>
    <contour>
      <point x="866" y="0" type="line"/>
      <point x="866" y="1151" type="line"/>
      <point x="656" y="1151" type="line"/>
      <point x="656" y="0" type="line"/>
    </contour>
    <contour>
      <point x="1319" y="100"/>
      <point x="1399" y="221"/>
      <point x="1399" y="367" type="curve" smooth="yes"/>
      <point x="1399" y="518"/>
      <point x="1297" y="664"/>
      <point x="1130" y="832" type="curve"/>
      <point x="1053" y="749" type="line"/>
      <point x="1130" y="619"/>
      <point x="1199" y="505"/>
      <point x="1199" y="396" type="curve" smooth="yes"/>
      <point x="1199" y="298"/>
      <point x="1149" y="239"/>
      <point x="1035" y="179" type="curve"/>
      <point x="1143" y="25" type="line"/>
    </contour>
    <contour>
      <point x="1011" y="508"/>
      <point x="1112" y="603"/>
      <point x="1209" y="669" type="curve" smooth="yes"/>
      <point x="1275" y="735"/>
      <point x="1289" y="790"/>
      <point x="1289" y="825" type="curve" smooth="yes"/>
      <point x="1289" y="902"/>
      <point x="1203" y="955"/>
      <point x="1075" y="983" type="curve"/>
      <point x="970" y="889" type="line"/>
      <point x="1076" y="706" type="line"/>
      <point x="1080" y="806" type="line"/>
      <point x="997" y="721"/>
      <point x="875" y="669"/>
      <point x="725" y="710" type="curve"/>
      <point x="804" y="519" type="line"/>
    </contour>
    <contour>
      <point x="1529" y="1104" type="line"/>
      <point x="1529" y="1287" type="line"/>
      <point x="-19" y="1287" type="line"/>
      <point x="-19" y="1104" type="line"/>
    </contour>
    <contour>
      <point x="761" y="1167" type="move" name="top"/>
    </contour>
    <contour>
      <point x="761" y="27" type="move" name="bottom"/>
    </contour>
    <contour>
      <point x="761" y="1167" type="move" name="topcandra"/>
    </contour>
  </outline>
</glyph>
<glyph name="nya-deva" format="1">
  <advance width="1484"/>
  <unicode hex="091E"/>
  <outline>
    <contour>
      <point x="519" y="936"/>
      <point x="466" y="927"/>
      <point x="426" y="907" type="curve"/>
      <point x="458" y="734" type="line"/>
      <point x="490" y="742"/>
      <point x="524" y="747"/>
      <point x="575" y="747" type="curve" smooth="yes"/>
      <point x="669" y="747"/>
      <point x="737" y="709"/>
      <point x="740" y="580" type="curve" smooth="yes"/>
      <point x="743" y="438"/>
      <point x="654" y="388"/>
      <point x="553" y="388" type="curve" smooth="yes"/>
      <point x="375" y="388"/>
      <point x="262" y="519"/>
      <point x="200" y="881" type="curve"/>
      <point x="37" y="849" type="line"/>
      <point x="105" y="315"/>
      <point x="350" y="200"/>
      <point x="559" y="200" type="curve" smooth="yes"/>
      <point x="785" y="200"/>
      <point x="932" y="327"/>
      <point x="932" y="569" type="curve" smooth="yes"/>
      <point x="932" y="824"/>
      <point x="768" y="936"/>
      <point x="578" y="936" type="curve" smooth="yes"/>
    </contour>
    <contour>
      <point x="1129" y="687"/>
      <point x="944" y="647"/>
      <point x="827" y="661" type="curve"/>
      <point x="878" y="489" type="line"/>
      <point x="982" y="469"/>
      <point x="1188" y="515"/>
      <point x="1254" y="577" type="curve"/>
      <point x="1247" y="775" type="line"/>
    </contour>
    <contour>
      <point x="1097" y="1199" type="line"/>
      <point x="1097" y="0" type="line"/>
      <point x="1307" y="0" type="line"/>
      <point x="1307" y="1199" type="line"/>
    </contour>
    <contour>
      <point x="-19" y="1287" type="line"/>
      <point x="-19" y="1104" type="line"/>
      <point x="1503" y="1104" type="line"/>
      <point x="1503" y="1287" type="line"/>
    </contour>
    <contour>
      <point x="197" y="82" type="move" name="nukta"/>
    </contour>
    <contour>
      <point x="1202" y="1167" type="move" name="top"/>
    </contour>
    <contour>
      <point x="751" y="1167" type="move" name="topcandra"/>
    </contour>
    <contour>
      <point x="1202" y="27" type="move" name="bottom"/>
    </contour>
  </outline>
</glyph>
<glyph name="tta-deva" format="1">
  <advance width="1014"/>
  <unicode hex="091F"/>
  <outline>
    <contour>
      <point x="665" y="1154" type="line"/>
      <point x="665" y="846" type="line"/>
      <point x="761" y="870" type="line"/>
      <point x="689" y="900"/>
      <point x="574" y="908"/>
      <point x="529" y="908" type="curve" smooth="yes"/>
      <point x="238" y="908"/>
      <point x="63" y="774"/>
      <point x="63" y="479" type="curve" smooth="yes"/>
      <point x="63" y="168"/>
      <point x="290" y="9"/>
      <point x="590" y="9" type="curve" smooth="yes"/>
      <point x="736" y="9"/>
      <point x="878" y="41"/>
      <point x="970" y="95" type="curve"/>
      <point x="919" y="270" type="line"/>
      <point x="813" y="229"/>
      <point x="697" y="196"/>
      <point x="570" y="196" type="curve" smooth="yes"/>
      <point x="375" y="196"/>
      <point x="282" y="271"/>
      <point x="283" y="469" type="curve" smooth="yes"/>
      <point x="283" y="648"/>
      <point x="374" y="721"/>
      <point x="601" y="721" type="curve" smooth="yes"/>
      <point x="667" y="722"/>
      <point x="799" y="717"/>
      <point x="875" y="713" type="curve"/>
      <point x="875" y="1154" type="line"/>
    </contour>
    <contour>
      <point x="-19" y="1287" type="line"/>
      <point x="-19" y="1104" type="line"/>
      <point x="1033" y="1104" type="line"/>
      <point x="1033" y="1287" type="line"/>
    </contour>
    <contour>
      <point x="-8" y="82" type="move" name="nukta"/>
    </contour>
    <contour>
      <point x="771" y="1167" type="move" name="top"/>
    </contour>
    <contour>
      <point x="548" y="1167" type="move" name="topcandra"/>
    </contour>
    <contour>
      <point x="614" y="39" type="move" name="bottom"/>
    </contour>
  </outline>
</glyph>
<glyph name="ta-deva" format="1">
  <advance width="1109"/>
  <unicode hex="0924"/>
  <outline>
    <contour>
      <point x="419" y="858" type="line" smooth="yes"/>
      <point x="205" y="858"/>
      <point x="61" y="750"/>
      <point x="61" y="566" type="curve" smooth="yes"/>
      <point x="61" y="365"/>
      <point x="179" y="131"/>
      <point x="310" y="-38" type="curve"/>
      <point x="474" y="71" type="line"/>
      <point x="321" y="302"/>
      <point x="275" y="439"/>
      <point x="275" y="534" type="curve" smooth="yes"/>
      <point x="275" y="633"/>
      <point x="326" y="661"/>
      <point x="439" y="661" type="curve" smooth="yes"/>
      <point x="863" y="661" type="line"/>
      <point x="817" y="858" type="line"/>
    </contour>
    <contour>
      <point x="723" y="1199" type="line"/>
      <point x="723" y="0" type="line"/>
      <point x="933" y="0" type="line"/>
      <point x="933" y="1199" type="line"/>
    </contour>
    <contour>
      <point x="-19" y="1287" type="line"/>
      <point x="-19" y="1104" type="line"/>
      <point x="1128" y="1104" type="line"/>
      <point x="1128" y="1287" type="line"/>
    </contour>
    <contour>
      <point x="3" y="82" type="move" name="nukta"/>
    </contour>
    <contour>
      <point x="835" y="1167" type="move" name="top"/>
    </contour>
    <contour>
      <point x="582" y="1167" type="move" name="topcandra"/>
    </contour>
    <contour>
      <point x="828" y="27" type="move" name="bottom"/>
    </contour>
  </outline>
</glyph>
<glyph name="ba-deva" format="1">
  <advance width="1123"/>
  <unicode hex="092C"/>
  <outline>
    <contour>
      <point x="607" y="174"/>
      <point x="761" y="230"/>
      <point x="843" y="361" type="curve"/>
      <point x="787" y="497" type="line"/>
      <point x="692" y="392"/>
      <point x="612" y="343"/>
      <point x="459" y="343" type="curve" smooth="yes"/>
      <point x="313" y="343"/>
      <point x="270" y="409"/>
      <point x="270" y="566" type="curve" smooth="yes"/>
      <point x="270" y="719"/>
      <point x="314" y="776"/>
      <point x="479" y="781" type="curve" smooth="yes"/>
      <point x="577" y="783"/>
      <point x="697" y="766"/>
      <point x="828" y="700" type="curve"/>
      <point x="824" y="842" type="line"/>
      <point x="722" y="916"/>
      <point x="615" y="950"/>
      <point x="476" y="950" type="curve" smooth="yes"/>
      <point x="213" y="950"/>
      <point x="65" y="825"/>
      <point x="65" y="568" type="curve" smooth="yes"/>
      <point x="65" y="292"/>
      <point x="230" y="174"/>
      <point x="451" y="174" type="curve" smooth="yes"/>
    </contour>
    <contour>
      <point x="798" y="395" type="line"/>
      <point x="343" y="851" type="line"/>
      <point x="240" y="745" type="line"/>
      <point x="695" y="289" type="line"/>
    </contour>
    <contour>
      <point x="948" y="0" type="line"/>
      <point x="948" y="1176" type="line"/>
      <point x="738" y="1176" type="line"/>
      <point x="738" y="0" type="line"/>
    </contour>
    <contour>
      <point x="1142" y="1104" type="line"/>
      <point x="1142" y="1287" type="line"/>
      <point x="-19" y="1287" type="line"/>
      <point x="-19" y="1104" type="line"/>
    </contour>
    <contour>
      <point x="119" y="82" type="move" name="nukta"/>
    </contour>
    <contour>
      <point x="843" y="1167" type="move" name="top"/>
    </contour>
    <contour>
      <point x="558" y="1167" type="move" name="topcandra"/>
    </contour>
    <contour>
      <point x="843" y="27" type="move" name="bottom"/>
    </contour>
  </outline>
</glyph>
<glyph name="aaMatra-deva" format="1">
  <advance width="561"/>
  <unicode hex="093E"/>
  <outline>
    <contour>
      <point x="175" y="1208" type="line"/>
      <point x="175" y="0" type="line"/>
      <point x="385" y="0" type="line"/>
      <point x="385" y="1208" type="line"/>
    </contour>
    <contour>
      <point x="-19" y="1287" type="line"/>
      <point x="-19" y="1104" type="line"/>
      <point x="580" y="1104" type="line"/>
      <point x="580" y="1287" type="line"/>
    </contour>
    <contour>
      <point x="281" y="1167" type="move" name="top"/>
    </contour>
    <contour>
      <point x="281" y="27" type="move" name="bottom"/>
    </contour>
    <contour>
      <point x="287" y="1167" type="move" name="topcandra"/>
    </contour>
  </outline>
</glyph>
<glyph name="eCandraMatra-deva" format="1">
  <advance width="540"/>
  <unicode hex="0945"/>
  <outline>
    <contour>
      <point x="-90" y="1595" type="line"/>
      <point x="-40" y="1471"/>
      <point x="74" y="1355"/>
      <point x="267" y="1355" type="curve" smooth="yes"/>
      <point x="439" y="1355"/>
      <point x="555" y="1444"/>
      <point x="629" y="1607" type="curve"/>
      <point x="495" y="1682" type="line"/>
      <point x="453" y="1614"/>
      <point x="400" y="1538"/>
      <point x="276" y="1538" type="curve" smooth="yes"/>
      <point x="162" y="1538"/>
      <point x="95" y="1601"/>
      <point x="51" y="1677" type="curve"/>
    </contour>
    <contour>
      <point x="267" y="1355" type="move" name="top"/>
    </contour>
    <contour>
      <point x="276" y="1167" type="move" name="_topcandra"/>
    </contour>
  </outline>
</glyph>
<glyph name="eShortMatra-deva" format="1">
  <advance width="540"/>
  <unicode hex="0946"/>
  <outline>
    <contour>
      <point x="295" y="1141" type="line"/>
      <point x="346" y="1223"/>
      <point x="356" y="1276"/>
      <point x="356" y="1331" type="curve" smooth="yes"/>
      <point x="356" y="1499"/>
      <point x="262" y="1580"/>
      <point x="87" y="1603" type="curve" smooth="yes"/>
      <point x="-95" y="1629" type="line" smooth="yes"/>
      <point x="-200" y="1644"/>
      <point x="-234" y="1685"/>
      <point x="-234" y="1739" type="curve" smooth="yes"/>
      <point x="-234" y="1751"/>
      <point x="-232" y="1772"/>
      <point x="-231" y="1792" type="curve"/>
      <point x="-368" y="1812" type="line"/>
      <point x="-391" y="1761"/>
      <point x="-397" y="1722"/>
      <point x="-397" y="1690" type="curve" smooth="yes"/>
      <point x="-397" y="1580"/>
      <point x="-324" y="1476"/>
      <point x="-154" y="1450" type="curve" smooth="yes"/>
      <point x="29" y="1422" type="line" smooth="yes"/>
      <point x="149" y="1404"/>
      <point x="186" y="1379"/>
      <point x="186" y="1293" type="curve" smooth="yes"/>
      <point x="186" y="1263"/>
      <point x="181" y="1225"/>
      <point x="176" y="1174" type="curve"/>
    </contour>
    <contour>
      <point x="326" y="1340" type="move" name="top"/>
    </contour>
    <contour>
      <point x="591" y="1220" type="move" name="topcandra"/>
    </contour>
    <contour>
      <point x="245" y="1140" type="move" name="_top"/>
    </contour>
  </outline>
</glyph>
<glyph name="eMatra-deva" format="1">
  <advance width="540"/>
  <unicode hex="0947"/>
  <outline>
    <contour>
      <point x="347" y="1274" type="line"/>
      <point x="164" y="1771"/>
      <point x="104" y="1814"/>
      <point x="-202" y="1814" type="curve" smooth="yes"/>
      <point x="-248" y="1814"/>
      <point x="-295" y="1810"/>
      <point x="-369" y="1793" type="curve"/>
      <point x="-340" y="1619" type="line"/>
      <point x="-296" y="1624"/>
      <point x="-251" y="1630"/>
      <point x="-201" y="1630" type="curve" smooth="yes"/>
      <point x="-3" y="1630"/>
      <point x="39" y="1567"/>
      <point x="169" y="1256" type="curve" smooth="yes"/>
      <point x="187" y="1214" type="line"/>
    </contour>
    <contour>
      <point x="499" y="1225" type="move" name="topcandra"/>
    </contour>
    <contour>
      <point x="270" y="1167" type="move" name="_top"/>
    </contour>
  </outline>
</glyph>
<glyph name="aw-deva" format="1">
  <advance width="1959"/>
  <unicode hex="0975"/>
  <outline>
    <contour>
      <point x="978" y="1856"/>
      <point x="964" y="1820"/>
      <point x="964" y="1786" type="curve" smooth="yes"/>
      <point x="964" y="1711"/>
      <point x="1031" y="1641"/>
      <point x="1159" y="1620" type="curve" smooth="yes"/>
      <point x="1462" y="1574" type="line" smooth="yes"/>
      <point x="1603" y="1551"/>
      <point x="1699" y="1526"/>
      <point x="1699" y="1383" type="curve" smooth="yes"/>
      <point x="1699" y="1343"/>
      <point x="1697" y="1308"/>
      <point x="1667" y="1250" type="curve"/>
      <point x="1732" y="1197" type="line"/>
      <point x="1810" y="1298"/>
      <point x="1839" y="1386"/>
      <point x="1839" y="1469" type="curve" smooth="yes"/>
      <point x="1839" y="1616"/>
      <point x="1731" y="1692"/>
      <point x="1552" y="1720" type="curve" smooth="yes"/>
      <point x="1264" y="1765" type="line" smooth="yes"/>
      <point x="1132" y="1786"/>
      <point x="1100" y="1803"/>
      <point x="1095" y="1848" type="curve" smooth="yes"/>
      <point x="1094" y="1855"/>
      <point x="1094" y="1863"/>
      <point x="1094" y="1872" type="curve"/>
      <point x="1011" y="1888" type="line"/>
    </contour>
    <contour>
      <point x="811" y="1686"/>
      <point x="800" y="1646"/>
      <point x="800" y="1608" type="curve" smooth="yes"/>
      <point x="800" y="1503"/>
      <point x="879" y="1408"/>
      <point x="1059" y="1389" type="curve" smooth="yes"/>
      <point x="1449" y="1347" type="line" smooth="yes"/>
      <point x="1575" y="1332"/>
      <point x="1603" y="1302"/>
      <point x="1603" y="1233" type="curve" smooth="yes"/>
      <point x="1603" y="1210"/>
      <point x="1599" y="1180"/>
      <point x="1596" y="1143" type="curve"/>
      <point x="1663" y="1119" type="line"/>
      <point x="1681" y="1172"/>
      <point x="1695" y="1228"/>
      <point x="1695" y="1273" type="curve" smooth="yes"/>
      <point x="1695" y="1402"/>
      <point x="1643" y="1464"/>
      <point x="1443" y="1496" type="curve" smooth="yes"/>
      <point x="1103" y="1549" type="line" smooth="yes"/>
      <point x="957" y="1571"/>
      <point x="930" y="1615"/>
      <point x="927" y="1682" type="curve" smooth="yes"/>
      <point x="926" y="1691"/>
      <point x="926" y="1700"/>
      <point x="926" y="1709" type="curve"/>
      <point x="833" y="1724" type="line"/>
    </contour>
    <component base="aa-deva"/>
  </outline>
</glyph>
<glyph name="d.sups" format="1">
  <advance width="774"/>
  <unicode hex="1D48"/>
  <outline>
    <contour>
      <point x="62" y="877" type="curve" name="hr00" smooth="yes"/>
      <point x="62" y="647"/>
      <point x="169" y="516"/>
      <point x="343" y="516" type="curve" smooth="yes"/>
      <point x="415" y="516"/>
      <point x="475" y="555"/>
      <point x="527" y="601" type="curve"/>
      <point x="532" y="601" type="line"/>
      <point x="547" y="532" type="line"/>
      <point x="677" y="532" type="line"/>
      <point x="677" y="1488" type="line"/>
      <point x="517" y="1488" type="line"/>
      <point x="517" y="1253" type="line"/>
      <point x="525" y="1140" type="line"/>
      <point x="475" y="1185"/>
      <point x="418" y="1214"/>
      <point x="347" y="1214" type="curve" smooth="yes"/>
      <point x="204" y="1214"/>
      <point x="62" y="1085"/>
    </contour>
    <contour>
      <point x="517" y="1028" type="curve"/>
      <point x="517" y="721" type="line"/>
      <point x="471" y="670"/>
      <point x="430" y="645"/>
      <point x="382" y="645" type="curve" smooth="yes"/>
      <point x="278" y="645"/>
      <point x="226" y="724"/>
      <point x="226" y="877" type="curve" smooth="yes"/>
      <point x="226" y="1006"/>
      <point x="297" y="1085"/>
      <point x="380" y="1085" type="curve" smooth="yes"/>
      <point x="423" y="1085"/>
      <point x="469" y="1069"/>
    </contour>
  </outline>
</glyph>
<glyph name="t.sups" format="1">
  <advance width="496"/>
  <unicode hex="1D57"/>
  <outline>
    <contour>
      <point x="30" y="1072" type="line" name="hr00"/>
      <point x="126" y="1072" type="line"/>
      <point x="126" y="762" type="line" smooth="yes"/>
      <point x="126" y="616"/>
      <point x="183" y="516"/>
      <point x="338" y="516" type="curve" smooth="yes"/>
      <point x="394" y="516"/>
      <point x="443" y="528"/>
      <point x="480" y="541" type="curve"/>
      <point x="450" y="656" type="line"/>
      <point x="427" y="647"/>
      <point x="404" y="642"/>
      <point x="379" y="642" type="curve" smooth="yes"/>
      <point x="318" y="642"/>
      <point x="285" y="682"/>
      <point x="285" y="761" type="curve" smooth="yes"/>
      <point x="285" y="1072" type="line"/>
      <point x="457" y="1072" type="line"/>
      <point x="457" y="1197" type="line"/>
      <point x="285" y="1197" type="line"/>
      <point x="285" y="1378" type="line"/>
      <point x="152" y="1378" type="line"/>
      <point x="132" y="1197" type="line"/>
      <point x="30" y="1191" type="line"/>
    </contour>
  </outline>
</glyph>
<glyph name="c.sups" format="1">
  <advance width="632"/>
  <unicode hex="1D9C"/>
  <outline>
    <contour>
      <point x="56" y="865" type="curve" name="hr00" smooth="yes"/>
      <point x="56" y="643"/>
      <point x="193" y="516"/>
      <point x="379" y="516" type="curve" smooth="yes"/>
      <point x="484" y="516"/>
      <point x="555" y="556"/>
      <point x="602" y="594" type="curve"/>
      <point x="536" y="697" type="line"/>
      <point x="501" y="670"/>
      <point x="462" y="645"/>
      <point x="397" y="645" type="curve" smooth="yes"/>
      <point x="292" y="645"/>
      <point x="219" y="735"/>
      <point x="219" y="865" type="curve" smooth="yes"/>
      <point x="219" y="995"/>
      <point x="296" y="1085"/>
      <point x="398" y="1085" type="curve" smooth="yes"/>
      <point x="450" y="1085"/>
      <point x="480" y="1068"/>
      <point x="517" y="1040" type="curve"/>
      <point x="592" y="1143" type="line"/>
      <point x="554" y="1177"/>
      <point x="484" y="1214"/>
      <point x="386" y="1214" type="curve" smooth="yes"/>
      <point x="210" y="1214"/>
      <point x="56" y="1084"/>
    </contour>
  </outline>
</glyph>
<glyph name="z.sups" format="1">
  <advance width="611"/>
  <unicode hex="1DBB"/>
  <outline>
    <contour>
      <point x="366" y="1072" type="line" name="hr00"/>
      <point x="46" y="619" type="line"/>
      <point x="46" y="532" type="line"/>
      <point x="575" y="532" type="line"/>
      <point x="575" y="658" type="line"/>
      <point x="247" y="658" type="line"/>
      <point x="566" y="1109" type="line"/>
      <point x="566" y="1197" type="line"/>
      <point x="85" y="1197" type="line"/>
      <point x="85" y="1072" type="line"/>
    </contour>
  </outline>
</glyph>
<glyph name="dagger" format="1">
  <advance width="974"/>
  <unicode hex="2020"/>
  <outline>
    <contour>
      <point x="103" y="951" type="line" name="hr00"/>
      <point x="409" y="964" type="line"/>
      <point x="396" y="-164" type="line"/>
      <point x="577" y="-164" type="line"/>
      <point x="564" y="964" type="line"/>
      <point x="871" y="951" type="line"/>
      <point x="871" y="1134" type="line"/>
      <point x="564" y="1120" type="line"/>
      <point x="577" y="1458" type="line"/>
      <point x="396" y="1458" type="line"/>
      <point x="409" y="1120" type="line"/>
      <point x="103" y="1134" type="line"/>
    </contour>
  </outline>
</glyph>
<glyph name="seven.sups" format="1">
  <advance width="759"/>
  <unicode hex="2077"/>
  <outline>
    <contour>
      <point x="102" y="1560" type="line" name="hr00"/>
      <point x="493" y="1560" type="line"/>
      <point x="338" y="1341"/>
      <point x="273" y="1167"/>
      <point x="257" y="901" type="curve"/>
      <point x="432" y="901" type="line"/>
      <point x="447" y="1177"/>
      <point x="488" y="1367"/>
      <point x="678" y="1609" type="curve"/>
      <point x="678" y="1700" type="line"/>
      <point x="102" y="1700" type="line"/>
    </contour>
  </outline>
</glyph>
<glyph name="eight.sups" format="1">
  <advance width="759"/>
  <unicode hex="2078"/>
  <outline>
    <contour>
      <point x="237" y="1326" type="curve" name="hr01"/>
      <point x="237" y="1318" type="line"/>
      <point x="161" y="1275"/>
      <point x="87" y="1198"/>
      <point x="87" y="1102" type="curve" name="hr02" smooth="yes"/>
      <point x="87" y="979"/>
      <point x="205" y="877"/>
      <point x="378" y="877" type="curve" smooth="yes"/>
      <point x="546" y="877"/>
      <point x="668" y="978"/>
      <point x="668" y="1106" type="curve" smooth="yes"/>
      <point x="668" y="1204"/>
      <point x="609" y="1271"/>
      <point x="522" y="1316" type="curve"/>
      <point x="522" y="1324" type="line"/>
      <point x="580" y="1361"/>
      <point x="643" y="1424"/>
      <point x="643" y="1510" type="curve" name="hr03" smooth="yes"/>
      <point x="643" y="1642"/>
      <point x="526" y="1724"/>
      <point x="378" y="1724" type="curve" smooth="yes"/>
      <point x="234" y="1724"/>
      <point x="118" y="1641"/>
      <point x="118" y="1510" type="curve" smooth="yes"/>
      <point x="118" y="1427"/>
      <point x="167" y="1373"/>
    </contour>
    <contour>
      <point x="492" y="1502" type="curve" name="hr05" smooth="yes"/>
      <point x="492" y="1457"/>
      <point x="469" y="1410"/>
      <point x="419" y="1370" type="curve"/>
      <point x="335" y="1399"/>
      <point x="267" y="1435"/>
      <point x="267" y="1506" type="curve" smooth="yes"/>
      <point x="267" y="1564"/>
      <point x="316" y="1605"/>
      <point x="377" y="1605" type="curve" smooth="yes"/>
      <point x="441" y="1605"/>
      <point x="492" y="1565"/>
    </contour>
    <contour>
      <point x="378" y="992" type="curve" name="hr06" smooth="yes"/>
      <point x="296" y="992"/>
      <point x="239" y="1051"/>
      <point x="239" y="1117" type="curve" smooth="yes"/>
      <point x="239" y="1175"/>
      <point x="273" y="1226"/>
      <point x="334" y="1265" type="curve"/>
      <point x="432" y="1222"/>
      <point x="517" y="1200"/>
      <point x="517" y="1115" type="curve" smooth="yes"/>
      <point x="517" y="1047"/>
      <point x="455" y="992"/>
    </contour>
  </outline>
</glyph>
<glyph name="six.subs" format="1">
  <advance width="759"/>
  <unicode hex="2086"/>
  <outline>
    <contour>
      <point x="587" y="183" type="curve" name="hr00"/>
      <point x="653" y="291" type="line"/>
      <point x="607" y="329"/>
      <point x="543" y="361"/>
      <point x="442" y="361" type="curve" smooth="yes"/>
      <point x="231" y="361"/>
      <point x="85" y="206"/>
      <point x="85" y="-77" type="curve" smooth="yes"/>
      <point x="85" y="-330"/>
      <point x="207" y="-487"/>
      <point x="406" y="-487" type="curve" smooth="yes"/>
      <point x="561" y="-487"/>
      <point x="679" y="-367"/>
      <point x="679" y="-210" type="curve" smooth="yes"/>
      <point x="679" y="-60"/>
      <point x="586" y="43"/>
      <point x="429" y="43" type="curve" smooth="yes"/>
      <point x="358" y="43"/>
      <point x="293" y="17"/>
      <point x="240" y="-34" type="curve"/>
      <point x="254" y="143"/>
      <point x="333" y="233"/>
      <point x="450" y="233" type="curve" smooth="yes"/>
      <point x="506" y="233"/>
      <point x="548" y="211"/>
    </contour>
    <contour>
      <point x="528" y="-215" type="curve" smooth="yes"/>
      <point x="528" y="-304"/>
      <point x="474" y="-358"/>
      <point x="401" y="-358" type="curve" smooth="yes"/>
      <point x="317" y="-358"/>
      <point x="252" y="-290"/>
      <point x="240" y="-148" type="curve"/>
      <point x="293" y="-95"/>
      <point x="341" y="-72"/>
      <point x="393" y="-72" type="curve" smooth="yes"/>
      <point x="481" y="-72"/>
      <point x="528" y="-129"/>
    </contour>
  </outline>
</glyph>
<glyph name="seven.subs" format="1">
  <advance width="759"/>
  <unicode hex="2087"/>
  <outline>
    <contour>
      <point x="102" y="198" type="line" name="hr00"/>
      <point x="493" y="198" type="line"/>
      <point x="338" y="-21"/>
      <point x="273" y="-197"/>
      <point x="257" y="-462" type="curve"/>
      <point x="432" y="-462" type="line"/>
      <point x="447" y="-185"/>
      <point x="488" y="4"/>
      <point x="678" y="247" type="curve"/>
      <point x="678" y="337" type="line"/>
      <point x="102" y="337" type="line"/>
    </contour>
  </outline>
</glyph>
<glyph name="uni0259.sups" format="1">
  <advance width="696"/>
  <unicode hex="2094"/>
  <outline>
    <contour>
      <point x="48" y="833" type="curve" name="hr00" smooth="yes"/>
      <point x="48" y="683"/>
      <point x="124" y="516"/>
      <point x="331" y="516" type="curve" smooth="yes"/>
      <point x="501" y="516"/>
      <point x="640" y="651"/>
      <point x="640" y="865" type="curve" smooth="yes"/>
      <point x="640" y="1081"/>
      <point x="516" y="1214"/>
      <point x="324" y="1214" type="curve" smooth="yes"/>
      <point x="238" y="1214"/>
      <point x="160" y="1184"/>
      <point x="93" y="1140" type="curve"/>
      <point x="151" y="1042" type="line"/>
      <point x="200" y="1072"/>
      <point x="249" y="1089"/>
      <point x="309" y="1089" type="curve" smooth="yes"/>
      <point x="418" y="1089"/>
      <point x="476" y="1022"/>
      <point x="486" y="910" type="curve"/>
      <point x="57" y="910" type="line"/>
      <point x="51" y="879"/>
      <point x="48" y="865"/>
    </contour>
    <contour>
      <point x="187" y="812" type="curve"/>
      <point x="487" y="812" type="line"/>
      <point x="478" y="695"/>
      <point x="416" y="641"/>
      <point x="329" y="641" type="curve" smooth="yes"/>
      <point x="226" y="641"/>
      <point x="187" y="718"/>
    </contour>
  </outline>
</glyph>
<glyph name="arrowdown" format="1">
  <advance width="1266"/>
  <unicode hex="2193"/>
  <outline>
    <contour>
      <point x="84" y="511" type="line" name="hr00"/>
      <point x="628" y="-52" type="line"/>
      <point x="636" y="-52" type="line"/>
      <point x="1183" y="511" type="line"/>
      <point x="1060" y="619" type="line"/>
      <point x="721" y="247" type="line"/>
      <point x="721" y="1081" type="line"/>
      <point x="544" y="1081" type="line"/>
      <point x="544" y="247" type="line"/>
      <point x="204" y="619" type="line"/>
    </contour>
  </outline>
</glyph>
<glyph name="infinity" format="1">
  <advance width="1627"/>
  <unicode hex="221E"/>
  <outline>
    <contour>
      <point x="80" y="658" type="curve" name="hr01" smooth="yes"/>
      <point x="80" y="474"/>
      <point x="223" y="319"/>
      <point x="404" y="319" type="curve" smooth="yes"/>
      <point x="566" y="319"/>
      <point x="679" y="435"/>
      <point x="751" y="521" type="curve"/>
      <point x="759" y="521" type="line"/>
      <point x="884" y="362"/>
      <point x="1002" y="274"/>
      <point x="1174" y="274" type="curve" name="hr02" smooth="yes"/>
      <point x="1385" y="274"/>
      <point x="1547" y="434"/>
      <point x="1547" y="691" type="curve" smooth="yes"/>
      <point x="1547" y="910"/>
      <point x="1390" y="1069"/>
      <point x="1182" y="1069" type="curve" smooth="yes"/>
      <point x="1011" y="1069"/>
      <point x="885" y="962"/>
      <point x="786" y="831" type="curve"/>
      <point x="778" y="831" type="line"/>
      <point x="704" y="930"/>
      <point x="597" y="1036"/>
      <point x="435" y="1036" type="curve" name="hr03" smooth="yes"/>
      <point x="228" y="1036"/>
      <point x="80" y="894"/>
    </contour>
    <contour>
      <point x="1175" y="480" type="curve" name="hr04" smooth="yes"/>
      <point x="1053" y="480"/>
      <point x="965" y="567"/>
      <point x="863" y="704" type="curve"/>
      <point x="955" y="835"/>
      <point x="1053" y="904"/>
      <point x="1160" y="904" type="curve" smooth="yes"/>
      <point x="1297" y="904"/>
      <point x="1380" y="816"/>
      <point x="1380" y="685" type="curve" smooth="yes"/>
      <point x="1380" y="575"/>
      <point x="1304" y="480"/>
    </contour>
    <contour>
      <point x="673" y="650" type="curve" name="hr05"/>
      <point x="609" y="555"/>
      <point x="526" y="482"/>
      <point x="424" y="482" type="curve" smooth="yes"/>
      <point x="320" y="482"/>
      <point x="245" y="564"/>
      <point x="245" y="664" type="curve" smooth="yes"/>
      <point x="245" y="765"/>
      <point x="312" y="829"/>
      <point x="417" y="829" type="curve" smooth="yes"/>
      <point x="513" y="829"/>
      <point x="598" y="757"/>
    </contour>
  </outline>
</glyph>
<glyph name="b_na-deva" format="1">
  <advance width="1126"/>
  <outline>
    <contour>
      <point x="861" y="343" type="line"/>
      <point x="730" y="431" type="line"/>
      <point x="138" y="51" type="line"/>
      <point x="207" y="-88" type="line"/>
      <point x="430" y="-180" type="line"/>
      <point x="478" y="-144"/>
      <point x="498" y="-108"/>
      <point x="500" y="-75" type="curve" smooth="yes"/>
      <point x="501" y="-45"/>
      <point x="492" y="-16"/>
      <point x="477" y="8" type="curve" smooth="yes"/>
      <point x="442" y="66" type="line"/>
      <point x="426" y="5" type="line"/>
    </contour>
    <component base="ba-deva"/>
  </outline>
</glyph>
<glyph name="b_r-deva" format="1">
  <advance width="599"/>
  <outline>
    <contour>
      <point x="837" y="371" type="line" smooth="yes"/>
      <point x="749" y="455" type="line"/>
      <point x="120" y="48" type="line"/>
      <point x="237" y="-103" type="line"/>
    </contour>
    <contour>
      <point x="255" y="951"/>
      <point x="68" y="859"/>
      <point x="68" y="564" type="curve" smooth="yes"/>
      <point x="68" y="380"/>
      <point x="146" y="193"/>
      <point x="426" y="193" type="curve" smooth="yes"/>
      <point x="600" y="193"/>
      <point x="726" y="281"/>
      <point x="848" y="382" type="curve"/>
      <point x="814" y="591" type="line"/>
      <point x="684" y="443"/>
      <point x="577" y="341"/>
      <point x="465" y="341" type="curve" smooth="yes"/>
      <point x="332" y="341"/>
      <point x="274" y="396"/>
      <point x="274" y="553" type="curve" smooth="yes"/>
      <point x="274" y="725"/>
      <point x="320" y="776"/>
      <point x="492" y="781" type="curve" smooth="yes"/>
      <point x="590" y="784"/>
      <point x="751" y="747"/>
      <point x="867" y="651" type="curve"/>
      <point x="909" y="814" type="line"/>
      <point x="838" y="894"/>
      <point x="649" y="950"/>
      <point x="487" y="951" type="curve" smooth="yes"/>
    </contour>
    <contour>
      <point x="-19" y="1287" type="line"/>
      <point x="-19" y="1104" type="line"/>
      <point x="608" y="1104" type="line"/>
      <point x="608" y="1287" type="line"/>
    </contour>
    <contour>
      <point x="248" y="745" type="line"/>
      <point x="702" y="290" type="line"/>
      <point x="812" y="409" type="line"/>
      <point x="359" y="864" type="line"/>
    </contour>
  </outline>
</glyph>
<glyph name="b_ra-deva" format="1">
  <advance width="1122"/>
  <outline>
    <contour>
      <point x="849" y="339" type="line"/>
      <point x="772" y="455" type="line"/>
      <point x="141" y="48" type="line"/>
      <point x="258" y="-103" type="line"/>
    </contour>
    <component base="ba-deva"/>
    <contour>
      <point x="848" y="1167" type="move" name="top"/>
    </contour>
    <contour>
      <point x="848" y="27" type="move" name="bottom"/>
    </contour>
    <contour>
      <point x="556" y="1167" type="move" name="topcandra"/>
    </contour>
  </outline>
</glyph>
<glyph name="ch_la-deva.loclMAR" format="1">
  <advance width="1351"/>
  <outline>
    <contour>
      <point x="773" y="1058"/>
      <point x="686" y="956"/>
      <point x="687" y="814" type="curve" smooth="yes"/>
      <point x="687" y="710"/>
      <point x="734" y="636"/>
      <point x="811" y="585" type="curve"/>
      <point x="921" y="678" type="line"/>
      <point x="890" y="718"/>
      <point x="878" y="747"/>
      <point x="878" y="788" type="curve" smooth="yes"/>
      <point x="878" y="851"/>
      <point x="913" y="895"/>
      <point x="975" y="895" type="curve" smooth="yes"/>
      <point x="1054" y="895"/>
      <point x="1093" y="845"/>
      <point x="1093" y="745" type="curve" smooth="yes"/>
      <point x="1094" y="581"/>
      <point x="871" y="422"/>
      <point x="570" y="422" type="curve" smooth="yes"/>
      <point x="352" y="422"/>
      <point x="299" y="498"/>
      <point x="299" y="563" type="curve" smooth="yes"/>
      <point x="299" y="673"/>
      <point x="398" y="701"/>
      <point x="566" y="705" type="curve"/>
      <point x="563" y="880" type="line"/>
      <point x="546" y="881"/>
      <point x="528" y="881"/>
      <point x="514" y="881" type="curve" smooth="yes"/>
      <point x="313" y="880"/>
      <point x="84" y="787"/>
      <point x="84" y="561" type="curve" smooth="yes"/>
      <point x="84" y="384"/>
      <point x="235" y="233"/>
      <point x="575" y="233" type="curve" smooth="yes"/>
      <point x="968" y="233"/>
      <point x="1285" y="464"/>
      <point x="1285" y="748" type="curve" smooth="yes"/>
      <point x="1285" y="953"/>
      <point x="1164" y="1058"/>
      <point x="969" y="1058" type="curve" smooth="yes"/>
    </contour>
    <contour>
      <point x="-19" y="1287" type="line"/>
      <point x="-19" y="1104" type="line"/>
      <point x="1370" y="1104" type="line"/>
      <point x="1370" y="1287" type="line"/>
    </contour>
    <contour>
      <point x="866" y="1254" type="line"/>
      <point x="866" y="963" type="line"/>
      <point x="1071" y="963" type="line"/>
      <point x="1071" y="1254" type="line"/>
    </contour>
    <contour>
      <point x="308" y="1227"/>
      <point x="71" y="1191"/>
      <point x="71" y="1003" type="curve" smooth="yes"/>
      <point x="71" y="902"/>
      <point x="144" y="788"/>
      <point x="371" y="720" type="curve"/>
      <point x="469" y="797" type="line"/>
      <point x="391" y="809"/>
      <point x="283" y="885"/>
      <point x="283" y="969" type="curve" smooth="yes"/>
      <point x="283" y="1077"/>
      <point x="362" y="1105"/>
      <point x="485" y="1106" type="curve"/>
      <point x="502" y="1237" type="line"/>
    </contour>
    <contour>
      <point x="866" y="414" type="line"/>
      <point x="866" y="93" type="line"/>
      <point x="1071" y="93" type="line"/>
      <point x="1071" y="414" type="line"/>
    </contour>
    <contour>
      <point x="661" y="149"/>
      <point x="555" y="-16"/>
      <point x="555" y="-213" type="curve" smooth="yes"/>
      <point x="555" y="-258"/>
      <point x="560" y="-300"/>
      <point x="575" y="-339" type="curve"/>
      <point x="753" y="-320" type="line"/>
      <point x="748" y="-289"/>
      <point x="745" y="-260"/>
      <point x="745" y="-230" type="curve" smooth="yes"/>
      <point x="745" y="-122"/>
      <point x="792" y="-40"/>
      <point x="891" y="-40" type="curve" smooth="yes"/>
      <point x="976" y="-40"/>
      <point x="1030" y="-91"/>
      <point x="1030" y="-186" type="curve" smooth="yes"/>
      <point x="1030" y="-277"/>
      <point x="1006" y="-376"/>
      <point x="833" y="-503" type="curve"/>
      <point x="937" y="-643" type="line"/>
      <point x="1152" y="-517"/>
      <point x="1224" y="-328"/>
      <point x="1224" y="-191" type="curve" smooth="yes"/>
      <point x="1224" y="18"/>
      <point x="1098" y="149"/>
      <point x="883" y="149" type="curve" smooth="yes"/>
    </contour>
    <contour>
      <point x="173" y="146"/>
      <point x="61" y="23"/>
      <point x="61" y="-156" type="curve" smooth="yes"/>
      <point x="61" y="-398"/>
      <point x="206" y="-536"/>
      <point x="379" y="-638" type="curve"/>
      <point x="468" y="-495" type="line"/>
      <point x="318" y="-401"/>
      <point x="265" y="-312"/>
      <point x="265" y="-186" type="curve" smooth="yes"/>
      <point x="265" y="-84"/>
      <point x="332" y="-45"/>
      <point x="409" y="-45" type="curve" smooth="yes"/>
      <point x="511" y="-45"/>
      <point x="583" y="-131"/>
      <point x="658" y="-251" type="curve"/>
      <point x="676" y="-118" type="line"/>
      <point x="605" y="68"/>
      <point x="504" y="146"/>
      <point x="360" y="146" type="curve" smooth="yes"/>
    </contour>
    <contour>
      <point x="970" y="1167" type="move" name="top"/>
    </contour>
    <contour>
      <point x="882" y="-519" type="move" name="bottom"/>
    </contour>
    <contour>
      <point x="685" y="1167" type="move" name="topcandra"/>
    </contour>
  </outline>
</glyph>
<glyph name="comma.sups" format="1">
  <advance width="386"/>
  <outline>
    <contour>
      <point x="66" y="742" type="curve" name="hr00"/>
      <point x="103" y="653" type="line"/>
      <point x="240" y="699"/>
      <point x="321" y="804"/>
      <point x="321" y="938" type="curve" smooth="yes"/>
      <point x="321" y="1047"/>
      <point x="275" y="1106"/>
      <point x="198" y="1106" type="curve" smooth="yes"/>
      <point x="138" y="1106"/>
      <point x="88" y="1063"/>
      <point x="88" y="1001" type="curve" smooth="yes"/>
      <point x="88" y="935"/>
      <point x="139" y="901"/>
      <point x="194" y="901" type="curve" smooth="yes"/>
      <point x="198" y="901"/>
      <point x="203" y="901"/>
      <point x="207" y="902" type="curve"/>
      <point x="206" y="824"/>
      <point x="154" y="774"/>
    </contour>
  </outline>
</glyph>
<glyph name="d_ra-deva" format="1">
  <advance width="1033"/>
  <outline>
    <contour>
      <point x="278" y="-77" type="line"/>
      <point x="399" y="-220" type="line" smooth="yes"/>
      <point x="903" y="200" type="line"/>
      <point x="846" y="291" type="line"/>
    </contour>
    <component base="da-deva"/>
    <contour>
      <point x="726" y="1167" type="move" name="top"/>
    </contour>
    <contour>
      <point x="801" y="-112" type="move" name="bottom"/>
    </contour>
    <contour>
      <point x="558" y="1167" type="move" name="topcandra"/>
    </contour>
  </outline>
</glyph>
<glyph name="d_va-deva" format="1">
  <advance width="1011"/>
  <outline>
    <contour>
      <point x="663" y="58"/>
      <point x="748" y="78"/>
      <point x="833" y="134" type="curve" smooth="yes"/>
      <point x="891" y="174"/>
      <point x="932" y="259"/>
      <point x="932" y="323" type="curve" smooth="yes"/>
      <point x="932" y="432"/>
      <point x="827" y="508"/>
      <point x="713" y="537" type="curve"/>
      <point x="598" y="450" type="line"/>
      <point x="701" y="231" type="line"/>
      <point x="799" y="326" type="line"/>
      <point x="700" y="260"/>
      <point x="653" y="233"/>
      <point x="539" y="233" type="curve" smooth="yes"/>
      <point x="367" y="233"/>
      <point x="280" y="296"/>
      <point x="280" y="474" type="curve" smooth="yes"/>
      <point x="280" y="681"/>
      <point x="396" y="721"/>
      <point x="601" y="721" type="curve" smooth="yes"/>
      <point x="709" y="721"/>
      <point x="762" y="717"/>
      <point x="825" y="713" type="curve"/>
      <point x="825" y="1134" type="line"/>
      <point x="614" y="1134" type="line"/>
      <point x="614" y="840" type="line"/>
      <point x="755" y="870" type="line"/>
      <point x="667" y="899"/>
      <point x="597" y="908"/>
      <point x="543" y="908" type="curve" smooth="yes"/>
      <point x="200" y="908"/>
      <point x="62" y="745"/>
      <point x="62" y="502" type="curve" smooth="yes"/>
      <point x="62" y="248"/>
      <point x="217" y="58"/>
      <point x="557" y="58" type="curve" smooth="yes"/>
    </contour>
    <contour>
      <point x="787" y="-438"/>
      <point x="864" y="-5"/>
      <point x="853" y="210" type="curve"/>
      <point x="721" y="274" type="line"/>
      <point x="700" y="-96"/>
      <point x="573" y="-275"/>
      <point x="407" y="-273" type="curve" smooth="yes"/>
      <point x="310" y="-272"/>
      <point x="249" y="-222"/>
      <point x="248" y="-139" type="curve" smooth="yes"/>
      <point x="246" y="-8"/>
      <point x="361" y="63"/>
      <point x="440" y="105" type="curve"/>
      <point x="391" y="239" type="line"/>
      <point x="280" y="186"/>
      <point x="66" y="55"/>
      <point x="64" y="-144" type="curve" smooth="yes"/>
      <point x="62" y="-315"/>
      <point x="179" y="-434"/>
      <point x="380" y="-435" type="curve" smooth="yes"/>
    </contour>
    <contour>
      <point x="1083" y="-73" type="line"/>
      <point x="852" y="272" type="line"/>
      <point x="745" y="216" type="line"/>
      <point x="936" y="-171" type="line"/>
    </contour>
    <contour>
      <point x="1030" y="1104" type="line"/>
      <point x="1030" y="1287" type="line"/>
      <point x="-19" y="1287" type="line"/>
      <point x="-19" y="1104" type="line"/>
    </contour>
    <contour>
      <point x="724" y="1167" type="move" name="top"/>
    </contour>
    <contour>
      <point x="960" y="-126" type="move" name="bottom"/>
    </contour>
    <contour>
      <point x="724" y="1167" type="move" name="topcandra"/>
    </contour>
  </outline>
</glyph>
<glyph name="da_rVocalicMatra-deva" format="1">
  <advance width="1031"/>
  <outline>
    <contour>
      <point x="763" y="12"/>
      <point x="635" y="-91"/>
      <point x="635" y="-257" type="curve" smooth="yes"/>
      <point x="635" y="-396"/>
      <point x="755" y="-497"/>
      <point x="912" y="-497" type="curve" smooth="yes"/>
      <point x="1018" y="-497"/>
      <point x="1116" y="-461"/>
      <point x="1194" y="-403" type="curve"/>
      <point x="1127" y="-264" type="line"/>
      <point x="1063" y="-303"/>
      <point x="994" y="-334"/>
      <point x="928" y="-334" type="curve" smooth="yes"/>
      <point x="856" y="-334"/>
      <point x="824" y="-299"/>
      <point x="824" y="-250" type="curve" smooth="yes"/>
      <point x="824" y="-204"/>
      <point x="863" y="-135"/>
      <point x="1017" y="-80" type="curve"/>
      <point x="946" y="59" type="line"/>
    </contour>
    <contour>
      <point x="614" y="1134" type="line"/>
      <point x="614" y="840" type="line"/>
      <point x="755" y="870" type="line"/>
      <point x="667" y="899"/>
      <point x="597" y="908"/>
      <point x="543" y="908" type="curve" smooth="yes"/>
      <point x="200" y="908"/>
      <point x="62" y="745"/>
      <point x="62" y="502" type="curve" smooth="yes"/>
      <point x="62" y="248"/>
      <point x="217" y="55"/>
      <point x="548" y="55" type="curve" smooth="yes"/>
      <point x="663" y="55"/>
      <point x="768" y="78"/>
      <point x="853" y="134" type="curve" smooth="yes"/>
      <point x="911" y="174"/>
      <point x="952" y="259"/>
      <point x="952" y="323" type="curve" smooth="yes"/>
      <point x="952" y="432"/>
      <point x="848" y="507"/>
      <point x="734" y="537" type="curve"/>
      <point x="618" y="450" type="line"/>
      <point x="721" y="231" type="line"/>
      <point x="799" y="326" type="line"/>
      <point x="700" y="260"/>
      <point x="653" y="233"/>
      <point x="539" y="233" type="curve" smooth="yes"/>
      <point x="367" y="233"/>
      <point x="280" y="296"/>
      <point x="280" y="474" type="curve" smooth="yes"/>
      <point x="280" y="681"/>
      <point x="396" y="721"/>
      <point x="601" y="721" type="curve" smooth="yes"/>
      <point x="709" y="721"/>
      <point x="762" y="717"/>
      <point x="825" y="713" type="curve"/>
      <point x="825" y="1134" type="line"/>
    </contour>
    <contour>
      <point x="728" y="216" type="line"/>
      <point x="895" y="-121" type="line"/>
      <point x="1038" y="-73" type="line"/>
      <point x="852" y="272" type="line"/>
    </contour>
    <contour>
      <point x="-19" y="1287" type="line"/>
      <point x="-19" y="1104" type="line"/>
      <point x="1051" y="1104" type="line"/>
      <point x="1051" y="1287" type="line"/>
    </contour>
    <contour>
      <point x="716" y="1170" type="move" name="top"/>
    </contour>
    <contour>
      <point x="964" y="-433" type="move" name="bottom"/>
    </contour>
    <contour>
      <point x="719" y="1171" type="move" name="topcandra"/>
    </contour>
  </outline>
</glyph>
<glyph name="dd_tta-deva" format="1">
  <advance width="1067"/>
  <outline>
    <contour>
      <point x="813" y="118"/>
      <point x="1000" y="192"/>
      <point x="1000" y="422" type="curve" smooth="yes"/>
      <point x="1000" y="638"/>
      <point x="839" y="661"/>
      <point x="644" y="660" type="curve" smooth="yes"/>
      <point x="538" y="659"/>
      <point x="420" y="646"/>
      <point x="345" y="633" type="curve"/>
      <point x="364" y="619" type="line"/>
      <point x="357" y="622"/>
      <point x="340" y="672"/>
      <point x="340" y="716" type="curve" smooth="yes"/>
      <point x="340" y="779"/>
      <point x="367" y="794"/>
      <point x="487" y="794" type="curve" smooth="yes"/>
      <point x="813" y="794" type="line"/>
      <point x="790" y="973" type="line"/>
      <point x="431" y="973" type="line" smooth="yes"/>
      <point x="243" y="973"/>
      <point x="159" y="911"/>
      <point x="159" y="776" type="curve" smooth="yes"/>
      <point x="159" y="663"/>
      <point x="219" y="545"/>
      <point x="287" y="488" type="curve"/>
      <point x="321" y="460"/>
      <point x="346" y="458"/>
      <point x="366" y="460" type="curve" smooth="yes"/>
      <point x="432" y="466"/>
      <point x="565" y="482"/>
      <point x="676" y="482" type="curve" smooth="yes"/>
      <point x="787" y="482"/>
      <point x="806" y="459"/>
      <point x="806" y="400" type="curve" smooth="yes"/>
      <point x="806" y="327"/>
      <point x="748" y="291"/>
      <point x="587" y="291" type="curve" smooth="yes"/>
      <point x="386" y="291"/>
      <point x="300" y="338"/>
      <point x="183" y="456" type="curve"/>
      <point x="79" y="354" type="line"/>
      <point x="223" y="179"/>
      <point x="398" y="119"/>
      <point x="577" y="118" type="curve" smooth="yes"/>
    </contour>
    <contour>
      <point x="705" y="-446"/>
      <point x="848" y="-422"/>
      <point x="951" y="-370" type="curve"/>
      <point x="901" y="-210" type="line"/>
      <point x="788" y="-251"/>
      <point x="690" y="-273"/>
      <point x="584" y="-273" type="curve" smooth="yes"/>
      <point x="384" y="-273"/>
      <point x="327" y="-204"/>
      <point x="327" y="-70" type="curve" smooth="yes"/>
      <point x="327" y="120"/>
      <point x="546" y="120"/>
      <point x="628" y="120" type="curve"/>
      <point x="731" y="244" type="line"/>
      <point x="671" y="261"/>
      <point x="607" y="271"/>
      <point x="537" y="271" type="curve" smooth="yes"/>
      <point x="333" y="271"/>
      <point x="123" y="190"/>
      <point x="123" y="-65" type="curve" smooth="yes"/>
      <point x="123" y="-354"/>
      <point x="382" y="-446"/>
      <point x="587" y="-446" type="curve" smooth="yes"/>
    </contour>
    <contour>
      <point x="1091" y="1104" type="line"/>
      <point x="1091" y="1287" type="line"/>
      <point x="-19" y="1287" type="line"/>
      <point x="-19" y="1104" type="line"/>
    </contour>
    <contour>
      <point x="891" y="794" type="line"/>
      <point x="891" y="1233" type="line"/>
      <point x="689" y="1233" type="line"/>
      <point x="689" y="794" type="line"/>
    </contour>
  </outline>
</glyph>
<glyph name="ddh_ddha-deva" format="1">
  <advance width="1124"/>
  <outline>
    <contour>
      <point x="840" y="239"/>
      <point x="1051" y="338"/>
      <point x="1051" y="547" type="curve" smooth="yes"/>
      <point x="1051" y="686"/>
      <point x="937" y="750"/>
      <point x="809" y="750" type="curve" smooth="yes"/>
      <point x="626" y="750"/>
      <point x="562" y="649"/>
      <point x="562" y="571" type="curve" smooth="yes"/>
      <point x="562" y="494"/>
      <point x="603" y="432"/>
      <point x="684" y="378" type="curve"/>
      <point x="806" y="408" type="line"/>
      <point x="746" y="453"/>
      <point x="726" y="497"/>
      <point x="727" y="535" type="curve" smooth="yes"/>
      <point x="727" y="574"/>
      <point x="760" y="618"/>
      <point x="831" y="615" type="curve" smooth="yes"/>
      <point x="870" y="613"/>
      <point x="899" y="593"/>
      <point x="899" y="552" type="curve" smooth="yes"/>
      <point x="899" y="456"/>
      <point x="794" y="415"/>
      <point x="663" y="407" type="curve" smooth="yes"/>
      <point x="436" y="394"/>
      <point x="362" y="490"/>
      <point x="362" y="621" type="curve" smooth="yes"/>
      <point x="362" y="765"/>
      <point x="443" y="845"/>
      <point x="665" y="845" type="curve" smooth="yes"/>
      <point x="730" y="845"/>
      <point x="798" y="845"/>
      <point x="862" y="844" type="curve"/>
      <point x="861" y="1213" type="line"/>
      <point x="668" y="1213" type="line"/>
      <point x="668" y="941" type="line"/>
      <point x="701" y="981" type="line"/>
      <point x="657" y="987"/>
      <point x="614" y="990"/>
      <point x="576" y="989" type="curve" smooth="yes"/>
      <point x="269" y="989"/>
      <point x="162" y="817"/>
      <point x="162" y="629" type="curve" smooth="yes"/>
      <point x="162" y="393"/>
      <point x="344" y="239"/>
      <point x="625" y="239" type="curve" smooth="yes"/>
    </contour>
    <contour>
      <point x="840" y="-576"/>
      <point x="1051" y="-476"/>
      <point x="1051" y="-268" type="curve" smooth="yes"/>
      <point x="1051" y="-129"/>
      <point x="937" y="-65"/>
      <point x="809" y="-65" type="curve" smooth="yes"/>
      <point x="626" y="-65"/>
      <point x="562" y="-166"/>
      <point x="562" y="-243" type="curve" smooth="yes"/>
      <point x="562" y="-321"/>
      <point x="603" y="-383"/>
      <point x="684" y="-437" type="curve"/>
      <point x="806" y="-407" type="line"/>
      <point x="746" y="-362"/>
      <point x="726" y="-318"/>
      <point x="727" y="-280" type="curve" smooth="yes"/>
      <point x="727" y="-241"/>
      <point x="760" y="-197"/>
      <point x="831" y="-200" type="curve" smooth="yes"/>
      <point x="870" y="-202"/>
      <point x="899" y="-222"/>
      <point x="899" y="-262" type="curve" smooth="yes"/>
      <point x="899" y="-359"/>
      <point x="794" y="-400"/>
      <point x="663" y="-408" type="curve" smooth="yes"/>
      <point x="436" y="-421"/>
      <point x="362" y="-325"/>
      <point x="362" y="-194" type="curve" smooth="yes"/>
      <point x="362" y="-50"/>
      <point x="443" y="30"/>
      <point x="665" y="30" type="curve" smooth="yes"/>
      <point x="730" y="30"/>
      <point x="798" y="30"/>
      <point x="862" y="29" type="curve"/>
      <point x="861" y="392" type="line"/>
      <point x="668" y="392" type="line"/>
      <point x="668" y="126" type="line"/>
      <point x="701" y="167" type="line"/>
      <point x="657" y="173"/>
      <point x="614" y="175"/>
      <point x="576" y="175" type="curve" smooth="yes"/>
      <point x="269" y="174"/>
      <point x="162" y="2"/>
      <point x="162" y="-185" type="curve" smooth="yes"/>
      <point x="162" y="-422"/>
      <point x="344" y="-576"/>
      <point x="625" y="-576" type="curve" smooth="yes"/>
    </contour>
    <contour>
      <point x="1143" y="1104" type="line"/>
      <point x="1143" y="1287" type="line"/>
      <point x="-19" y="1287" type="line"/>
      <point x="-19" y="1104" type="line"/>
    </contour>
    <contour>
      <point x="764" y="1167" type="move" name="top"/>
    </contour>
    <contour>
      <point x="669" y="-526" type="move" name="bottom"/>
    </contour>
    <contour>
      <point x="527" y="1167" type="move" name="topcandra"/>
    </contour>
  </outline>
</glyph>
<glyph name="dha_ra-deva" format="1">
  <advance width="1279"/>
  <outline>
    <contour>
      <point x="204" y="76" type="line"/>
      <point x="322" y="-85" type="line"/>
      <point x="944" y="367" type="line"/>
      <point x="897" y="505" type="line"/>
    </contour>
    <component base="dha-deva"/>
    <contour>
      <point x="1002" y="1167" type="move" name="top"/>
    </contour>
    <contour>
      <point x="1001" y="27" type="move" name="bottom"/>
    </contour>
    <contour>
      <point x="691" y="1167" type="move" name="topcandra"/>
    </contour>
  </outline>
</glyph>
<glyph name="five.onum" format="1">
  <advance width="1042"/>
  <outline>
    <contour>
      <point x="168" y="135" type="curve" name="hr01"/>
      <point x="66" y="-2" type="line" name="hr02"/>
      <point x="161" y="-98"/>
      <point x="284" y="-179"/>
      <point x="495" y="-179" type="curve" name="hr03" smooth="yes"/>
      <point x="733" y="-179"/>
      <point x="944" y="-15"/>
      <point x="944" y="283" type="curve" smooth="yes"/>
      <point x="944" y="565"/>
      <point x="766" y="695"/>
      <point x="535" y="695" type="curve" smooth="yes"/>
      <point x="465" y="695"/>
      <point x="412" y="678"/>
      <point x="355" y="650" type="curve"/>
      <point x="385" y="993" type="line"/>
      <point x="881" y="993" type="line"/>
      <point x="881" y="1179" type="line"/>
      <point x="195" y="1179" type="line"/>
      <point x="155" y="530" type="line"/>
      <point x="262" y="460" type="line"/>
      <point x="340" y="513"/>
      <point x="389" y="535"/>
      <point x="473" y="535" type="curve" smooth="yes"/>
      <point x="623" y="535"/>
      <point x="724" y="439"/>
      <point x="724" y="275" type="curve" smooth="yes"/>
      <point x="724" y="101"/>
      <point x="622" y="0"/>
      <point x="469" y="0" type="curve" smooth="yes"/>
      <point x="331" y="0"/>
      <point x="246" y="61"/>
    </contour>
  </outline>
</glyph>
<glyph name="five.pnum" format="1">
  <advance width="1042"/>
  <outline>
    <contour>
      <point x="179" y="286" type="curve" name="hr00"/>
      <point x="77" y="145" type="line"/>
      <point x="172" y="56"/>
      <point x="279" y="-25"/>
      <point x="489" y="-25" type="curve" smooth="yes"/>
      <point x="740" y="-25"/>
      <point x="944" y="157"/>
      <point x="944" y="443" type="curve" smooth="yes"/>
      <point x="944" y="723"/>
      <point x="772" y="866"/>
      <point x="535" y="866" type="curve" smooth="yes"/>
      <point x="465" y="866"/>
      <point x="412" y="851"/>
      <point x="355" y="822" type="curve"/>
      <point x="385" y="1156" type="line"/>
      <point x="881" y="1156" type="line"/>
      <point x="881" y="1343" type="line"/>
      <point x="195" y="1343" type="line"/>
      <point x="155" y="701" type="line"/>
      <point x="262" y="633" type="line"/>
      <point x="340" y="684"/>
      <point x="389" y="707"/>
      <point x="473" y="707" type="curve" smooth="yes"/>
      <point x="623" y="707"/>
      <point x="724" y="598"/>
      <point x="724" y="437" type="curve" smooth="yes"/>
      <point x="724" y="255"/>
      <point x="613" y="155"/>
      <point x="463" y="155" type="curve" smooth="yes"/>
      <point x="325" y="155"/>
      <point x="257" y="216"/>
    </contour>
  </outline>
</glyph>
<glyph name="four.dnom" format="1">
  <advance width="759"/>
  <outline>
    <contour>
      <point x="594" y="200" type="line" name="hr00"/>
      <point x="713" y="200" type="line"/>
      <point x="713" y="313" type="line"/>
      <point x="594" y="313" type="line"/>
      <point x="594" y="799" type="line"/>
      <point x="398" y="799" type="line"/>
      <point x="81" y="284" type="line"/>
      <point x="81" y="200" type="line"/>
      <point x="446" y="200" type="line"/>
      <point x="446" y="0" type="line"/>
      <point x="594" y="0" type="line"/>
    </contour>
    <contour>
      <point x="446" y="434" type="line"/>
      <point x="446" y="313" type="line"/>
      <point x="242" y="313" type="line"/>
      <point x="353" y="500" type="line"/>
      <point x="448" y="663" type="line"/>
      <point x="456" y="663" type="line"/>
    </contour>
  </outline>
</glyph>
<glyph name="gh-deva" format="1">
  <advance width="665"/>
  <outline>
    <contour>
      <point x="221" y="840"/>
      <point x="117" y="688"/>
      <point x="117" y="526" type="curve" smooth="yes"/>
      <point x="117" y="337"/>
      <point x="244" y="212"/>
      <point x="476" y="212" type="curve" smooth="yes"/>
      <point x="673" y="212"/>
      <point x="823" y="291"/>
      <point x="913" y="396" type="curve"/>
      <point x="885" y="608" type="line"/>
      <point x="800" y="481"/>
      <point x="649" y="392"/>
      <point x="492" y="392" type="curve" smooth="yes"/>
      <point x="383" y="392"/>
      <point x="331" y="430"/>
      <point x="331" y="528" type="curve" smooth="yes"/>
      <point x="331" y="630"/>
      <point x="407" y="660"/>
      <point x="565" y="674" type="curve"/>
      <point x="557" y="843" type="line"/>
    </contour>
    <contour>
      <point x="306" y="1227"/>
      <point x="69" y="1192"/>
      <point x="69" y="983" type="curve" smooth="yes"/>
      <point x="69" y="864"/>
      <point x="143" y="777"/>
      <point x="369" y="681" type="curve"/>
      <point x="467" y="758" type="line"/>
      <point x="390" y="798"/>
      <point x="281" y="846"/>
      <point x="281" y="969" type="curve" smooth="yes"/>
      <point x="281" y="1077"/>
      <point x="360" y="1095"/>
      <point x="483" y="1106" type="curve"/>
      <point x="500" y="1237" type="line"/>
    </contour>
    <contour>
      <point x="-10" y="1287" type="line"/>
      <point x="-10" y="1104" type="line"/>
      <point x="685" y="1104" type="line"/>
      <point x="685" y="1287" type="line"/>
    </contour>
  </outline>
</glyph>
<glyph name="h_ya-deva" format="1">
  <advance width="1591"/>
  <outline>
    <contour>
      <point x="322" y="558"/>
      <point x="73" y="490"/>
      <point x="73" y="217" type="curve" smooth="yes"/>
      <point x="73" y="-23"/>
      <point x="263" y="-266"/>
      <point x="790" y="-387" type="curve"/>
      <point x="835" y="-221" type="line"/>
      <point x="748" y="-201"/>
      <point x="287" y="-94"/>
      <point x="287" y="192" type="curve" smooth="yes"/>
      <point x="287" y="310"/>
      <point x="366" y="374"/>
      <point x="541" y="374" type="curve" smooth="yes"/>
      <point x="635" y="374"/>
      <point x="703" y="354"/>
      <point x="703" y="309" type="curve" smooth="yes"/>
      <point x="703" y="259"/>
      <point x="625" y="204"/>
      <point x="538" y="184" type="curve"/>
      <point x="578" y="4"/>
      <point x="738" y="-114"/>
      <point x="927" y="-114" type="curve" smooth="yes"/>
      <point x="1060" y="-114"/>
      <point x="1189" y="-55"/>
      <point x="1270" y="48" type="curve"/>
      <point x="1271" y="281" type="line"/>
      <point x="1162" y="128"/>
      <point x="1061" y="61"/>
      <point x="926" y="61" type="curve" smooth="yes"/>
      <point x="848" y="61"/>
      <point x="761" y="83"/>
      <point x="703" y="153" type="curve"/>
      <point x="708" y="113" type="line"/>
      <point x="821" y="144"/>
      <point x="906" y="217"/>
      <point x="906" y="327" type="curve" smooth="yes"/>
      <point x="906" y="454"/>
      <point x="786" y="558"/>
      <point x="531" y="558" type="curve" smooth="yes"/>
    </contour>
    <contour>
      <point x="641" y="1132" type="line"/>
      <point x="641" y="932" type="line"/>
      <point x="387" y="932" type="line" smooth="yes"/>
      <point x="194" y="932"/>
      <point x="99" y="846"/>
      <point x="99" y="729" type="curve" smooth="yes"/>
      <point x="99" y="633"/>
      <point x="161" y="521"/>
      <point x="246" y="426" type="curve"/>
      <point x="395" y="474" type="line"/>
      <point x="346" y="539"/>
      <point x="316" y="624"/>
      <point x="316" y="678" type="curve" smooth="yes"/>
      <point x="317" y="729"/>
      <point x="345" y="745"/>
      <point x="452" y="745" type="curve" smooth="yes"/>
      <point x="848" y="745" type="line"/>
      <point x="848" y="1132" type="line"/>
    </contour>
    <contour>
      <point x="1206" y="1132" type="line"/>
      <point x="1206" y="-258" type="line"/>
      <point x="1416" y="-258" type="line"/>
      <point x="1416" y="1132" type="line"/>
    </contour>
    <contour>
      <point x="-19" y="1287" type="line"/>
      <point x="-19" y="1104" type="line"/>
      <point x="1610" y="1104" type="line"/>
      <point x="1610" y="1287" type="line"/>
    </contour>
    <contour>
      <point x="1311" y="1167" type="move" name="top"/>
    </contour>
    <contour>
      <point x="1311" y="-236" type="move" name="bottom"/>
    </contour>
    <contour>
      <point x="938" y="1167" type="move" name="topcandra"/>
    </contour>
  </outline>
</glyph>
<glyph name="iMatra-deva.02" format="1">
  <advance width="561"/>
  <outline>
    <contour>
      <point x="451" y="1204" type="line"/>
      <point x="310" y="1340"/>
      <point x="285" y="1398"/>
      <point x="285" y="1475" type="curve" smooth="yes"/>
      <point x="285" y="1571"/>
      <point x="338" y="1614"/>
      <point x="579" y="1614" type="curve" smooth="yes"/>
      <point x="947" y="1614"/>
      <point x="1243" y="1508"/>
      <point x="1552" y="1356" type="curve"/>
      <point x="1626" y="1477" type="line"/>
      <point x="1280" y="1688"/>
      <point x="929" y="1808"/>
      <point x="549" y="1808" type="curve" smooth="yes"/>
      <point x="270" y="1808"/>
      <point x="68" y="1744"/>
      <point x="68" y="1524" type="curve" smooth="yes"/>
      <point x="68" y="1403"/>
      <point x="130" y="1305"/>
      <point x="271" y="1197" type="curve"/>
    </contour>
    <contour>
      <point x="385" y="1" type="line"/>
      <point x="385" y="1217" type="line"/>
      <point x="175" y="1217" type="line"/>
      <point x="175" y="1" type="line"/>
    </contour>
    <contour>
      <point x="586" y="1104" type="line"/>
      <point x="586" y="1287" type="line"/>
      <point x="-19" y="1287" type="line"/>
      <point x="-19" y="1104" type="line"/>
    </contour>
    <contour>
      <point x="1589" y="1419" type="move" name="imatra"/>
    </contour>
    <contour>
      <point x="1375" y="1438" type="move" name="top"/>
    </contour>
    <contour>
      <point x="1725" y="1350" type="move" name="topcandra"/>
    </contour>
  </outline>
</glyph>
<glyph name="iMatra_reph-deva.0" format="1">
  <advance width="561"/>
  <outline>
    <component base="iMatra-deva.0"/>
    <component base="reph-deva" xOffset="1010" yOffset="197"/>
    <contour>
      <point x="1366" y="1902" type="move" name="topcandra"/>
    </contour>
  </outline>
</glyph>
<glyph name="iMatra_reph-deva.01" format="1">
  <advance width="562"/>
  <outline>
    <component base="iMatra-deva.01"/>
    <component base="reph-deva" xOffset="1120" yOffset="199"/>
    <contour>
      <point x="1462" y="1902" type="move" name="topcandra"/>
    </contour>
  </outline>
</glyph>
<glyph name="iiMatra_reph_anusvara-deva.02" format="1">
  <advance width="551"/>
  <outline>
    <component base="iiMatra-deva.02"/>
    <component base="reph_anusvara-deva.imatra" xOffset="85"/>
    <contour>
      <point x="426" y="1607" type="move" name="topcandra"/>
    </contour>
  </outline>
</glyph>
<glyph name="k_ta-deva" format="1">
  <advance width="1792"/>
  <outline>
    <contour>
      <point x="1075" y="1287" type="line"/>
      <point x="1075" y="1104" type="line"/>
      <point x="1844" y="1104" type="line"/>
      <point x="1844" y="1287" type="line"/>
    </contour>
    <contour>
      <point x="1083" y="439" type="line"/>
      <point x="1225" y="641"/>
      <point x="1341" y="704"/>
      <point x="1424" y="704" type="curve" smooth="yes"/>
      <point x="1504" y="704"/>
      <point x="1549" y="658"/>
      <point x="1549" y="558" type="curve" smooth="yes"/>
      <point x="1549" y="432"/>
      <point x="1492" y="329"/>
      <point x="1408" y="209" type="curve"/>
      <point x="1561" y="92" type="line"/>
      <point x="1673" y="213"/>
      <point x="1740" y="388"/>
      <point x="1740" y="537" type="curve" smooth="yes"/>
      <point x="1740" y="756"/>
      <point x="1624" y="890"/>
      <point x="1433" y="890" type="curve" smooth="yes"/>
      <point x="1292" y="890"/>
      <point x="1189" y="840"/>
      <point x="1083" y="725" type="curve"/>
    </contour>
    <component base="t_ta-deva"/>
    <contour>
      <point x="1015" y="1167" type="move" name="top"/>
    </contour>
    <contour>
      <point x="1018" y="27" type="move" name="bottom"/>
    </contour>
    <contour>
      <point x="1017" y="1167" type="move" name="topcandra"/>
    </contour>
  </outline>
</glyph>
<glyph name="k_va-deva" format="1">
  <advance width="2229"/>
  <outline>
    <component base="k-deva"/>
    <component base="va-deva" xOffset="1138"/>
    <contour>
      <point x="1950" y="1167" type="move" name="top"/>
    </contour>
    <contour>
      <point x="1955" y="27" type="move" name="bottom"/>
    </contour>
    <contour>
      <point x="1606" y="1167" type="move" name="topcandra"/>
    </contour>
  </outline>
</glyph>
<glyph name="ka_ra-deva" format="1">
  <advance width="1530"/>
  <outline>
    <contour>
      <point x="780" y="362" type="line"/>
      <point x="700" y="458" type="line"/>
      <point x="144" y="72" type="line"/>
      <point x="264" y="-74" type="line"/>
    </contour>
    <component base="ka-deva" yOffset="-5"/>
    <contour>
      <point x="795" y="1167" type="move" name="top"/>
    </contour>
    <contour>
      <point x="798" y="27" type="move" name="bottom"/>
    </contour>
    <contour>
      <point x="796" y="1167" type="move" name="topcandra"/>
    </contour>
  </outline>
</glyph>
<glyph name="khh_ta-deva" format="1">
  <advance width="2267"/>
  <outline>
    <contour>
      <point x="353" y="1166" type="line"/>
      <point x="353" y="800" type="line" smooth="yes"/>
      <point x="353" y="726"/>
      <point x="331" y="689"/>
      <point x="281" y="689" type="curve" smooth="yes"/>
      <point x="249" y="689"/>
      <point x="219" y="701"/>
      <point x="180" y="733" type="curve"/>
      <point x="52" y="644" type="line"/>
      <point x="278" y="110"/>
      <point x="488" y="-59"/>
      <point x="818" y="-59" type="curve" smooth="yes"/>
      <point x="893" y="-59"/>
      <point x="979" y="-47"/>
      <point x="1046" y="-23" type="curve"/>
      <point x="1010" y="151" type="line"/>
      <point x="949" y="137"/>
      <point x="879" y="124"/>
      <point x="809" y="124" type="curve" smooth="yes"/>
      <point x="597" y="124"/>
      <point x="431" y="234"/>
      <point x="292" y="575" type="curve"/>
      <point x="273" y="540" type="line"/>
      <point x="289" y="533"/>
      <point x="317" y="519"/>
      <point x="360" y="519" type="curve" smooth="yes"/>
      <point x="443" y="519"/>
      <point x="563" y="563"/>
      <point x="563" y="785" type="curve" smooth="yes"/>
      <point x="563" y="1166" type="line"/>
    </contour>
    <contour>
      <point x="807" y="980"/>
      <point x="643" y="890"/>
      <point x="643" y="615" type="curve" smooth="yes"/>
      <point x="643" y="448"/>
      <point x="722" y="271"/>
      <point x="988" y="271" type="curve" smooth="yes"/>
      <point x="1153" y="271"/>
      <point x="1283" y="365"/>
      <point x="1347" y="468" type="curve"/>
      <point x="1273" y="601" type="line"/>
      <point x="1213" y="521"/>
      <point x="1125" y="449"/>
      <point x="1019" y="449" type="curve" smooth="yes"/>
      <point x="901" y="449"/>
      <point x="853" y="493"/>
      <point x="854" y="616" type="curve" smooth="yes"/>
      <point x="854" y="759"/>
      <point x="920" y="802"/>
      <point x="1056" y="802" type="curve" smooth="yes"/>
      <point x="1108" y="802"/>
      <point x="1149" y="798"/>
      <point x="1210" y="789" type="curve"/>
      <point x="1227" y="948" type="line"/>
      <point x="1167" y="971"/>
      <point x="1102" y="980"/>
      <point x="1044" y="980" type="curve" smooth="yes"/>
    </contour>
    <contour>
      <point x="-19" y="1287" type="line"/>
      <point x="-19" y="1104" type="line"/>
      <point x="1178" y="1104" type="line"/>
      <point x="1178" y="1287" type="line"/>
    </contour>
    <component base="nukta-deva" xOffset="-112"/>
    <component base="ta-deva" xOffset="1158"/>
    <contour>
      <point x="160" y="27" type="move" name="nukta"/>
    </contour>
    <contour>
      <point x="466" y="1167" type="move" name="top"/>
    </contour>
    <contour>
      <point x="881" y="1167" type="move" name="topcandra"/>
    </contour>
    <contour>
      <point x="761" y="0" type="move" name="bottom"/>
    </contour>
  </outline>
</glyph>
<glyph name="khh_va-deva" format="1">
  <advance width="2190"/>
  <outline>
    <contour>
      <point x="362" y="1166" type="line"/>
      <point x="362" y="800" type="line" smooth="yes"/>
      <point x="362" y="726"/>
      <point x="340" y="689"/>
      <point x="290" y="689" type="curve" smooth="yes"/>
      <point x="258" y="689"/>
      <point x="228" y="701"/>
      <point x="189" y="733" type="curve"/>
      <point x="61" y="644" type="line"/>
      <point x="287" y="110"/>
      <point x="497" y="-59"/>
      <point x="827" y="-59" type="curve" smooth="yes"/>
      <point x="902" y="-59"/>
      <point x="988" y="-47"/>
      <point x="1055" y="-23" type="curve"/>
      <point x="1019" y="151" type="line"/>
      <point x="958" y="137"/>
      <point x="888" y="124"/>
      <point x="818" y="124" type="curve" smooth="yes"/>
      <point x="606" y="124"/>
      <point x="440" y="234"/>
      <point x="301" y="575" type="curve"/>
      <point x="282" y="540" type="line"/>
      <point x="298" y="533"/>
      <point x="326" y="519"/>
      <point x="369" y="519" type="curve" smooth="yes"/>
      <point x="452" y="519"/>
      <point x="572" y="563"/>
      <point x="572" y="785" type="curve" smooth="yes"/>
      <point x="572" y="1166" type="line"/>
    </contour>
    <contour>
      <point x="807" y="936"/>
      <point x="641" y="846"/>
      <point x="641" y="601" type="curve" smooth="yes"/>
      <point x="641" y="358"/>
      <point x="797" y="258"/>
      <point x="970" y="258" type="curve" smooth="yes"/>
      <point x="1153" y="258"/>
      <point x="1282" y="353"/>
      <point x="1350" y="452" type="curve"/>
      <point x="1276" y="586" type="line"/>
      <point x="1212" y="508"/>
      <point x="1125" y="436"/>
      <point x="1011" y="436" type="curve" smooth="yes"/>
      <point x="901" y="436"/>
      <point x="851" y="480"/>
      <point x="852" y="601" type="curve" smooth="yes"/>
      <point x="852" y="719"/>
      <point x="907" y="757"/>
      <point x="1026" y="757" type="curve" smooth="yes"/>
      <point x="1078" y="757"/>
      <point x="1122" y="754"/>
      <point x="1173" y="744" type="curve"/>
      <point x="1199" y="903" type="line"/>
      <point x="1139" y="927"/>
      <point x="1072" y="936"/>
      <point x="1014" y="936" type="curve" smooth="yes"/>
    </contour>
    <contour>
      <point x="1348" y="942"/>
      <point x="1214" y="830"/>
      <point x="1214" y="602" type="curve" smooth="yes"/>
      <point x="1214" y="445"/>
      <point x="1286" y="269"/>
      <point x="1532" y="269" type="curve" smooth="yes"/>
      <point x="1681" y="269"/>
      <point x="1814" y="333"/>
      <point x="1887" y="432" type="curve"/>
      <point x="1844" y="582" type="line"/>
      <point x="1769" y="502"/>
      <point x="1673" y="447"/>
      <point x="1564" y="447" type="curve" smooth="yes"/>
      <point x="1476" y="447"/>
      <point x="1425" y="484"/>
      <point x="1425" y="598" type="curve" smooth="yes"/>
      <point x="1425" y="709"/>
      <point x="1479" y="756"/>
      <point x="1596" y="760" type="curve" smooth="yes"/>
      <point x="1673" y="763"/>
      <point x="1786" y="745"/>
      <point x="1890" y="723" type="curve"/>
      <point x="1885" y="834" type="line"/>
      <point x="1826" y="898"/>
      <point x="1708" y="942"/>
      <point x="1560" y="942" type="curve" smooth="yes"/>
    </contour>
    <contour>
      <point x="1804" y="1176" type="line"/>
      <point x="1804" y="0" type="line"/>
      <point x="2014" y="0" type="line"/>
      <point x="2014" y="1176" type="line"/>
    </contour>
    <contour>
      <point x="-19" y="1287" type="line"/>
      <point x="-19" y="1104" type="line"/>
      <point x="2209" y="1104" type="line"/>
      <point x="2209" y="1287" type="line"/>
    </contour>
    <component base="nukta-deva" xOffset="-94"/>
    <contour>
      <point x="1234" y="82" type="move" name="nukta"/>
    </contour>
    <contour>
      <point x="1911" y="1168" type="move" name="top"/>
    </contour>
    <contour>
      <point x="1527" y="1168" type="move" name="topcandra"/>
    </contour>
    <contour>
      <point x="1915" y="28" type="move" name="bottom"/>
    </contour>
  </outline>
</glyph>
<glyph name="la-deva.loclMAR" format="1">
  <advance width="1289"/>
  <outline>
    <contour>
      <point x="666" y="943"/>
      <point x="557" y="775"/>
      <point x="557" y="574" type="curve" smooth="yes"/>
      <point x="557" y="529"/>
      <point x="562" y="485"/>
      <point x="577" y="446" type="curve"/>
      <point x="758" y="465" type="line"/>
      <point x="753" y="497"/>
      <point x="750" y="527"/>
      <point x="750" y="557" type="curve" smooth="yes"/>
      <point x="750" y="668"/>
      <point x="799" y="751"/>
      <point x="898" y="751" type="curve"/>
      <point x="1002" y="751"/>
      <point x="1039" y="667"/>
      <point x="1039" y="563" type="curve" smooth="yes"/>
      <point x="1039" y="426"/>
      <point x="968" y="279"/>
      <point x="863" y="125" type="curve"/>
      <point x="1015" y="15" type="line"/>
      <point x="1155" y="188"/>
      <point x="1236" y="379"/>
      <point x="1236" y="558" type="curve" smooth="yes"/>
      <point x="1236" y="792"/>
      <point x="1118" y="943"/>
      <point x="889" y="943" type="curve"/>
    </contour>
    <contour>
      <point x="167" y="940"/>
      <point x="54" y="815"/>
      <point x="54" y="597" type="curve" smooth="yes"/>
      <point x="54" y="334"/>
      <point x="213" y="132"/>
      <point x="309" y="23" type="curve"/>
      <point x="446" y="140" type="line"/>
      <point x="334" y="283"/>
      <point x="260" y="423"/>
      <point x="260" y="567" type="curve" smooth="yes"/>
      <point x="260" y="707"/>
      <point x="329" y="746"/>
      <point x="408" y="746" type="curve" smooth="yes"/>
      <point x="512" y="746"/>
      <point x="583" y="659"/>
      <point x="660" y="536" type="curve"/>
      <point x="679" y="671" type="line"/>
      <point x="607" y="860"/>
      <point x="504" y="940"/>
      <point x="358" y="940" type="curve" smooth="yes"/>
    </contour>
    <contour>
      <point x="-19" y="1287" type="line"/>
      <point x="-19" y="1104" type="line"/>
      <point x="1308" y="1104" type="line"/>
      <point x="1308" y="1287" type="line"/>
    </contour>
    <contour>
      <point x="855" y="1163" type="line"/>
      <point x="855" y="828" type="line"/>
      <point x="1065" y="828" type="line"/>
      <point x="1065" y="1163" type="line"/>
    </contour>
    <contour>
      <point x="26" y="35" type="move" name="nukta"/>
    </contour>
    <contour>
      <point x="960" y="1167" type="move" name="top"/>
    </contour>
    <contour>
      <point x="648" y="1167" type="move" name="topcandra"/>
    </contour>
    <contour>
      <point x="984" y="100" type="move" name="bottom"/>
    </contour>
  </outline>
</glyph>
<glyph name="n_bha-deva" format="1">
  <advance width="1786"/>
  <outline>
    <contour>
      <point x="45" y="771" type="line"/>
      <point x="45" y="611" type="line"/>
      <point x="199" y="387" type="line"/>
      <point x="346" y="387"/>
      <point x="369" y="468"/>
      <point x="369" y="568" type="curve" smooth="yes"/>
      <point x="369" y="771" type="line"/>
    </contour>
    <contour>
      <point x="170" y="771" type="line"/>
      <point x="170" y="589" type="line"/>
      <point x="849" y="589" type="line"/>
      <point x="849" y="771" type="line"/>
    </contour>
    <contour>
      <point x="-19" y="1287" type="line"/>
      <point x="-19" y="1104" type="line"/>
      <point x="566" y="1104" type="line"/>
      <point x="566" y="1287" type="line"/>
    </contour>
    <component base="bha-deva" xOffset="544"/>
    <contour>
      <point x="835" y="87" type="move" name="nukta"/>
    </contour>
    <contour>
      <point x="1506" y="1167" type="move" name="top"/>
    </contour>
    <contour>
      <point x="1205" y="1167" type="move" name="topcandra"/>
    </contour>
    <contour>
      <point x="1506" y="27" type="move" name="bottom"/>
    </contour>
  </outline>
</glyph>
<glyph name="nine.numr" format="1">
  <advance width="789"/>
  <outline>
    <contour>
      <point x="184" y="697" type="curve" name="hr00"/>
      <point x="117" y="589" type="line"/>
      <point x="164" y="551"/>
      <point x="227" y="517"/>
      <point x="328" y="517" type="curve" smooth="yes"/>
      <point x="540" y="517"/>
      <point x="686" y="672"/>
      <point x="686" y="957" type="curve" smooth="yes"/>
      <point x="686" y="1208"/>
      <point x="565" y="1365"/>
      <point x="364" y="1365" type="curve" smooth="yes"/>
      <point x="211" y="1365"/>
      <point x="92" y="1246"/>
      <point x="92" y="1090" type="curve" smooth="yes"/>
      <point x="92" y="938"/>
      <point x="184" y="836"/>
      <point x="342" y="836" type="curve" smooth="yes"/>
      <point x="414" y="836"/>
      <point x="478" y="862"/>
      <point x="531" y="914" type="curve"/>
      <point x="517" y="736"/>
      <point x="439" y="646"/>
      <point x="320" y="646" type="curve" smooth="yes"/>
      <point x="265" y="646"/>
      <point x="223" y="668"/>
    </contour>
    <contour>
      <point x="531" y="1029" type="curve"/>
      <point x="479" y="974"/>
      <point x="431" y="951"/>
      <point x="376" y="951" type="curve" smooth="yes"/>
      <point x="290" y="951"/>
      <point x="242" y="1009"/>
      <point x="242" y="1094" type="curve" smooth="yes"/>
      <point x="242" y="1182"/>
      <point x="296" y="1237"/>
      <point x="368" y="1237" type="curve" smooth="yes"/>
      <point x="453" y="1237"/>
      <point x="518" y="1171"/>
    </contour>
  </outline>
</glyph>
<glyph name="one.onum" format="1">
  <advance width="788"/>
  <outline>
    <contour>
      <point x="94" y="936" type="line" name="hr00"/>
      <point x="335" y="948" type="line"/>
      <point x="335" y="0" type="line"/>
      <point x="554" y="0" type="line"/>
      <point x="554" y="1179" type="line"/>
      <point x="389" y="1179" type="line"/>
      <point x="310" y="1131"/>
      <point x="221" y="1097"/>
      <point x="94" y="1074" type="curve"/>
    </contour>
  </outline>
</glyph>
<glyph name="ring.cap" format="1">
  <advance width="0"/>
  <outline>
    <contour>
      <point x="0" y="1430" type="curve" name="hr00" smooth="yes"/>
      <point x="121" y="1430"/>
      <point x="208" y="1503"/>
      <point x="208" y="1619" type="curve" smooth="yes"/>
      <point x="208" y="1733"/>
      <point x="121" y="1808"/>
      <point x="0" y="1808" type="curve" smooth="yes"/>
      <point x="-123" y="1808"/>
      <point x="-208" y="1733"/>
      <point x="-208" y="1619" type="curve" smooth="yes"/>
      <point x="-208" y="1503"/>
      <point x="-123" y="1430"/>
    </contour>
    <contour>
      <point x="0" y="1520" type="curve" smooth="yes"/>
      <point x="-51" y="1520"/>
      <point x="-92" y="1557"/>
      <point x="-92" y="1619" type="curve" smooth="yes"/>
      <point x="-92" y="1678"/>
      <point x="-51" y="1716"/>
      <point x="0" y="1716" type="curve" smooth="yes"/>
      <point x="48" y="1716"/>
      <point x="90" y="1678"/>
      <point x="90" y="1619" type="curve" smooth="yes"/>
      <point x="90" y="1557"/>
      <point x="48" y="1520"/>
    </contour>
    <contour>
      <point x="0" y="800" type="move" name="_top"/>
    </contour>
  </outline>
</glyph>
<glyph name="sh-deva" format="1">
  <advance width="873"/>
  <outline>
    <contour>
      <point x="217" y="1307"/>
      <point x="98" y="1191"/>
      <point x="98" y="1053" type="curve" smooth="yes"/>
      <point x="99" y="949"/>
      <point x="156" y="855"/>
      <point x="314" y="777" type="curve"/>
      <point x="401" y="897" type="line"/>
      <point x="320" y="951"/>
      <point x="298" y="992"/>
      <point x="298" y="1036" type="curve" smooth="yes"/>
      <point x="298" y="1096"/>
      <point x="349" y="1132"/>
      <point x="437" y="1132" type="curve" smooth="yes"/>
      <point x="547" y="1132"/>
      <point x="601" y="1058"/>
      <point x="601" y="952" type="curve" smooth="yes"/>
      <point x="601" y="765"/>
      <point x="471" y="633"/>
      <point x="200" y="531" type="curve"/>
      <point x="336" y="402" type="line"/>
      <point x="619" y="501"/>
      <point x="805" y="682"/>
      <point x="805" y="954" type="curve" smooth="yes"/>
      <point x="805" y="1146"/>
      <point x="686" y="1307"/>
      <point x="432" y="1307" type="curve" smooth="yes"/>
    </contour>
    <contour>
      <point x="220" y="507" type="line"/>
      <point x="655" y="-56" type="line"/>
      <point x="818" y="82" type="line"/>
      <point x="362" y="561" type="line"/>
    </contour>
    <contour>
      <point x="135" y="683" type="line"/>
      <point x="95" y="611"/>
      <point x="83" y="550"/>
      <point x="83" y="504" type="curve" smooth="yes"/>
      <point x="83" y="404"/>
      <point x="156" y="367"/>
      <point x="212" y="367" type="curve" smooth="yes"/>
      <point x="284" y="367"/>
      <point x="334" y="389"/>
      <point x="446" y="446" type="curve"/>
      <point x="425" y="493" type="line"/>
      <point x="261" y="683" type="line"/>
    </contour>
  </outline>
</glyph>
<glyph name="ssa_ra-deva" format="1">
  <advance width="1177"/>
  <outline>
    <contour>
      <point x="852" y="411" type="line"/>
      <point x="725" y="514" type="line"/>
      <point x="129" y="101" type="line"/>
      <point x="250" y="-51" type="line"/>
    </contour>
    <component base="ssa-deva"/>
    <contour>
      <point x="901" y="1167" type="move" name="top"/>
    </contour>
    <contour>
      <point x="901" y="27" type="move" name="bottom"/>
    </contour>
    <contour>
      <point x="595" y="1167" type="move" name="topcandra"/>
    </contour>
  </outline>
</glyph>
<glyph name="t_s_ya-deva" format="1">
  <advance width="2505"/>
  <outline>
    <contour>
      <point x="1510" y="1128" type="line"/>
      <point x="1585" y="1045"/>
      <point x="1627" y="954"/>
      <point x="1627" y="894" type="curve" smooth="yes"/>
      <point x="1627" y="786"/>
      <point x="1532" y="736"/>
      <point x="1375" y="673" type="curve"/>
      <point x="1423" y="367"/>
      <point x="1623" y="238"/>
      <point x="1841" y="238" type="curve" smooth="yes"/>
      <point x="1962" y="238"/>
      <point x="2103" y="288"/>
      <point x="2180" y="410" type="curve"/>
      <point x="2189" y="671" type="line"/>
      <point x="2095" y="491"/>
      <point x="1963" y="429"/>
      <point x="1831" y="429" type="curve" smooth="yes"/>
      <point x="1703" y="429"/>
      <point x="1616" y="485"/>
      <point x="1559" y="648" type="curve"/>
      <point x="1532" y="561" type="line"/>
      <point x="1677" y="615"/>
      <point x="1831" y="705"/>
      <point x="1831" y="874" type="curve" smooth="yes"/>
      <point x="1831" y="956"/>
      <point x="1798" y="1025"/>
      <point x="1719" y="1129" type="curve"/>
    </contour>
    <contour>
      <point x="205" y="858"/>
      <point x="59" y="753"/>
      <point x="59" y="566" type="curve" smooth="yes"/>
      <point x="59" y="365"/>
      <point x="177" y="131"/>
      <point x="308" y="-38" type="curve"/>
      <point x="472" y="71" type="line"/>
      <point x="319" y="302"/>
      <point x="273" y="439"/>
      <point x="273" y="534" type="curve" smooth="yes"/>
      <point x="273" y="617"/>
      <point x="317" y="661"/>
      <point x="453" y="661" type="curve" smooth="yes"/>
      <point x="567" y="661"/>
      <point x="647" y="626"/>
      <point x="814" y="492" type="curve"/>
      <point x="789" y="727" type="line"/>
      <point x="675" y="823"/>
      <point x="565" y="858"/>
      <point x="453" y="858" type="curve" smooth="yes"/>
    </contour>
    <contour>
      <point x="-19" y="1287" type="line"/>
      <point x="-19" y="1104" type="line"/>
      <point x="644" y="1104" type="line"/>
      <point x="644" y="1287" type="line"/>
    </contour>
    <contour>
      <point x="2119" y="1230" type="line"/>
      <point x="2119" y="0" type="line"/>
      <point x="2329" y="0" type="line"/>
      <point x="2329" y="1230" type="line"/>
    </contour>
    <contour>
      <point x="1322" y="1287" type="line"/>
      <point x="1322" y="1104" type="line"/>
      <point x="2524" y="1104" type="line"/>
      <point x="2524" y="1287" type="line"/>
    </contour>
    <contour>
      <point x="950" y="1176" type="line"/>
      <point x="950" y="801" type="line" smooth="yes"/>
      <point x="950" y="729"/>
      <point x="928" y="692"/>
      <point x="879" y="692" type="curve" smooth="yes"/>
      <point x="844" y="692"/>
      <point x="814" y="706"/>
      <point x="776" y="738" type="curve"/>
      <point x="641" y="627" type="line"/>
      <point x="1076" y="-36" type="line"/>
      <point x="1246" y="86" type="line"/>
      <point x="894" y="557" type="line"/>
      <point x="887" y="547" type="line"/>
      <point x="903" y="537"/>
      <point x="928" y="532"/>
      <point x="954" y="532" type="curve" smooth="yes"/>
      <point x="1067" y="532"/>
      <point x="1160" y="618"/>
      <point x="1160" y="795" type="curve" smooth="yes"/>
      <point x="1160" y="1176" type="line"/>
    </contour>
    <contour>
      <point x="1015" y="564" type="line"/>
      <point x="1121" y="514"/>
      <point x="1256" y="491"/>
      <point x="1384" y="491" type="curve" smooth="yes"/>
      <point x="1449" y="491"/>
      <point x="1512" y="497"/>
      <point x="1567" y="507" type="curve"/>
      <point x="1567" y="702" type="line"/>
      <point x="1511" y="690"/>
      <point x="1442" y="679"/>
      <point x="1352" y="679" type="curve" smooth="yes"/>
      <point x="1267" y="679"/>
      <point x="1160" y="693"/>
      <point x="1076" y="729" type="curve"/>
    </contour>
    <contour>
      <point x="553" y="1287" type="line"/>
      <point x="553" y="1104" type="line"/>
      <point x="1379" y="1104" type="line"/>
      <point x="1379" y="1287" type="line"/>
    </contour>
    <contour>
      <point x="1536" y="84" type="move" name="nukta"/>
    </contour>
    <contour>
      <point x="2224" y="1167" type="move" name="top"/>
    </contour>
    <contour>
      <point x="1925" y="1167" type="move" name="topcandra"/>
    </contour>
    <contour>
      <point x="2224" y="27" type="move" name="bottom"/>
    </contour>
  </outline>
</glyph>
<glyph name="tha_ra-deva" format="1">
  <advance width="1258"/>
  <outline>
    <contour>
      <point x="245" y="99" type="line"/>
      <point x="371" y="-51" type="line"/>
      <point x="919" y="386" type="line"/>
      <point x="828" y="493" type="line"/>
    </contour>
    <component base="tha-deva"/>
    <contour>
      <point x="979" y="1167" type="move" name="top"/>
    </contour>
    <contour>
      <point x="980" y="27" type="move" name="bottom"/>
    </contour>
    <contour>
      <point x="730" y="1167" type="move" name="topcandra"/>
    </contour>
  </outline>
</glyph>
<glyph name="two.onum" format="1">
  <advance width="1034"/>
  <outline>
    <contour>
      <point x="96" y="127" type="curve" name="hr01"/>
      <point x="96" y="0" type="line"/>
      <point x="927" y="0" type="line"/>
      <point x="927" y="187" type="line"/>
      <point x="645" y="187" type="line" smooth="yes"/>
      <point x="580" y="187"/>
      <point x="492" y="180"/>
      <point x="423" y="173" type="curve"/>
      <point x="690" y="424"/>
      <point x="872" y="614"/>
      <point x="872" y="824" type="curve" smooth="yes"/>
      <point x="872" y="1063"/>
      <point x="726" y="1203"/>
      <point x="476" y="1203" type="curve" name="hr02" smooth="yes"/>
      <point x="302" y="1203"/>
      <point x="178" y="1132"/>
      <point x="77" y="1012" type="curve"/>
      <point x="198" y="893" type="line"/>
      <point x="263" y="966"/>
      <point x="346" y="1029"/>
      <point x="452" y="1029" type="curve" smooth="yes"/>
      <point x="600" y="1029"/>
      <point x="662" y="951"/>
      <point x="662" y="814" type="curve" smooth="yes"/>
      <point x="662" y="632"/>
      <point x="462" y="427"/>
    </contour>
  </outline>
</glyph>
<glyph name="uni03080304" format="1">
  <advance width="0"/>
  <outline>
    <contour>
      <point x="-336" y="1654" type="line" name="hr00"/>
      <point x="-865" y="1654" type="line"/>
      <point x="-865" y="1541" type="line"/>
      <point x="-336" y="1541" type="line"/>
    </contour>
    <contour>
      <point x="-893" y="1295" type="curve" smooth="yes"/>
      <point x="-893" y="1237"/>
      <point x="-847" y="1191"/>
      <point x="-786" y="1191" type="curve" smooth="yes"/>
      <point x="-725" y="1191"/>
      <point x="-681" y="1237"/>
      <point x="-681" y="1295" type="curve" smooth="yes"/>
      <point x="-681" y="1356"/>
      <point x="-725" y="1402"/>
      <point x="-786" y="1402" type="curve" smooth="yes"/>
      <point x="-847" y="1402"/>
      <point x="-893" y="1356"/>
    </contour>
    <contour>
      <point x="-519" y="1295" type="curve" smooth="yes"/>
      <point x="-519" y="1237"/>
      <point x="-475" y="1191"/>
      <point x="-414" y="1191" type="curve" smooth="yes"/>
      <point x="-353" y="1191"/>
      <point x="-307" y="1237"/>
      <point x="-307" y="1295" type="curve" smooth="yes"/>
      <point x="-307" y="1356"/>
      <point x="-353" y="1402"/>
      <point x="-414" y="1402" type="curve" smooth="yes"/>
      <point x="-475" y="1402"/>
      <point x="-519" y="1356"/>
    </contour>
    <contour>
      <point x="-600" y="1048" type="move" name="_mark0"/>
    </contour>
  </outline>
</glyph>
<glyph name="v-deva" format="1">
  <advance width="602"/>
  <outline>
    <contour>
      <point x="231" y="952"/>
      <point x="55" y="873"/>
      <point x="55" y="564" type="curve" smooth="yes"/>
      <point x="55" y="399"/>
      <point x="133" y="196"/>
      <point x="413" y="195" type="curve" smooth="yes"/>
      <point x="603" y="195"/>
      <point x="743" y="281"/>
      <point x="835" y="382" type="curve"/>
      <point x="801" y="591" type="line"/>
      <point x="731" y="485"/>
      <point x="591" y="375"/>
      <point x="427" y="375" type="curve" smooth="yes"/>
      <point x="320" y="375"/>
      <point x="266" y="416"/>
      <point x="266" y="553" type="curve" smooth="yes"/>
      <point x="266" y="720"/>
      <point x="350" y="765"/>
      <point x="479" y="770" type="curve" smooth="yes"/>
      <point x="578" y="774"/>
      <point x="737" y="746"/>
      <point x="860" y="651" type="curve"/>
      <point x="896" y="814" type="line"/>
      <point x="823" y="893"/>
      <point x="637" y="952"/>
      <point x="474" y="952" type="curve" smooth="yes"/>
    </contour>
    <contour>
      <point x="-19" y="1287" type="line"/>
      <point x="-19" y="1104" type="line"/>
      <point x="603" y="1104" type="line"/>
      <point x="603" y="1287" type="line"/>
    </contour>
  </outline>
</glyph>
<glyph name="v_la-deva.loclMAR" format="1">
  <advance width="1199"/>
  <outline>
    <contour>
      <point x="249" y="966"/>
      <point x="116" y="850"/>
      <point x="116" y="626" type="curve" smooth="yes"/>
      <point x="116" y="455"/>
      <point x="191" y="281"/>
      <point x="473" y="281" type="curve" smooth="yes"/>
      <point x="648" y="281"/>
      <point x="782" y="344"/>
      <point x="856" y="463" type="curve"/>
      <point x="813" y="611" type="line"/>
      <point x="735" y="513"/>
      <point x="640" y="459"/>
      <point x="504" y="459" type="curve" smooth="yes"/>
      <point x="381" y="459"/>
      <point x="327" y="494"/>
      <point x="327" y="613" type="curve" smooth="yes"/>
      <point x="327" y="734"/>
      <point x="386" y="779"/>
      <point x="518" y="782" type="curve" smooth="yes"/>
      <point x="639" y="785"/>
      <point x="754" y="768"/>
      <point x="859" y="744" type="curve"/>
      <point x="855" y="837" type="line"/>
      <point x="788" y="922"/>
      <point x="670" y="966"/>
      <point x="482" y="966" type="curve" smooth="yes"/>
    </contour>
    <contour>
      <point x="772" y="1195" type="line"/>
      <point x="772" y="28" type="line"/>
      <point x="982" y="28" type="line"/>
      <point x="982" y="1195" type="line"/>
    </contour>
    <contour>
      <point x="-19" y="1287" type="line"/>
      <point x="-19" y="1104" type="line"/>
      <point x="1218" y="1104" type="line"/>
      <point x="1218" y="1287" type="line"/>
    </contour>
    <contour>
      <point x="618" y="189"/>
      <point x="512" y="24"/>
      <point x="512" y="-173" type="curve" smooth="yes"/>
      <point x="512" y="-218"/>
      <point x="517" y="-260"/>
      <point x="532" y="-299" type="curve"/>
      <point x="710" y="-280" type="line"/>
      <point x="705" y="-249"/>
      <point x="702" y="-220"/>
      <point x="702" y="-190" type="curve" smooth="yes"/>
      <point x="702" y="-82"/>
      <point x="749" y="0"/>
      <point x="848" y="0" type="curve" smooth="yes"/>
      <point x="933" y="0"/>
      <point x="987" y="-51"/>
      <point x="987" y="-146" type="curve" smooth="yes"/>
      <point x="987" y="-237"/>
      <point x="963" y="-336"/>
      <point x="790" y="-463" type="curve"/>
      <point x="894" y="-603" type="line"/>
      <point x="1109" y="-477"/>
      <point x="1181" y="-288"/>
      <point x="1181" y="-151" type="curve" smooth="yes"/>
      <point x="1181" y="58"/>
      <point x="1055" y="189"/>
      <point x="840" y="189" type="curve" smooth="yes"/>
    </contour>
    <contour>
      <point x="130" y="186"/>
      <point x="18" y="63"/>
      <point x="18" y="-116" type="curve" smooth="yes"/>
      <point x="18" y="-358"/>
      <point x="163" y="-496"/>
      <point x="336" y="-598" type="curve"/>
      <point x="425" y="-455" type="line"/>
      <point x="275" y="-361"/>
      <point x="222" y="-272"/>
      <point x="222" y="-146" type="curve" smooth="yes"/>
      <point x="222" y="-44"/>
      <point x="289" y="-5"/>
      <point x="366" y="-5" type="curve" smooth="yes"/>
      <point x="468" y="-5"/>
      <point x="540" y="-91"/>
      <point x="615" y="-211" type="curve"/>
      <point x="633" y="-78" type="line"/>
      <point x="562" y="108"/>
      <point x="461" y="186"/>
      <point x="317" y="186" type="curve" smooth="yes"/>
    </contour>
    <contour>
      <point x="877" y="1167" type="move" name="top"/>
    </contour>
    <contour>
      <point x="839" y="-479" type="move" name="bottom"/>
    </contour>
    <contour>
      <point x="568" y="1167" type="move" name="topcandra"/>
    </contour>
  </outline>
</glyph>
<glyph name="z_ra-deva" format="1">
  <advance width="1679"/>
  <outline>
    <contour>
      <point x="562" y="113"/>
      <point x="527" y="80"/>
      <point x="527" y="0" type="curve" smooth="yes"/>
      <point x="527" y="-79"/>
      <point x="562" y="-112"/>
      <point x="641" y="-112" type="curve" smooth="yes"/>
      <point x="721" y="-112"/>
      <point x="756" y="-79"/>
      <point x="756" y="0" type="curve" smooth="yes"/>
      <point x="756" y="80"/>
      <point x="721" y="113"/>
      <point x="641" y="113" type="curve" smooth="yes"/>
    </contour>
    <component base="j_ra-deva"/>
    <contour>
      <point x="1063" y="97" type="move" name="nukta"/>
    </contour>
    <contour>
      <point x="1387" y="1167" type="move" name="top"/>
    </contour>
    <contour>
      <point x="1387" y="1167" type="move" name="topcandra"/>
    </contour>
    <contour>
      <point x="1435" y="27" type="move" name="bottom"/>
    </contour>
  </outline>
</glyph>
<glyph name="zero.pnum" format="1">
  <advance width="1135"/>
  <outline>
    <contour>
      <point x="111" y="673" type="curve" name="hr00" smooth="yes"/>
      <point x="111" y="234"/>
      <point x="275" y="-25"/>
      <point x="568" y="-25" type="curve" smooth="yes"/>
      <point x="860" y="-25"/>
      <point x="1024" y="234"/>
      <point x="1024" y="673" type="curve" smooth="yes"/>
      <point x="1024" y="1112"/>
      <point x="860" y="1367"/>
      <point x="568" y="1367" type="curve" smooth="yes"/>
      <point x="275" y="1367"/>
      <point x="111" y="1114"/>
    </contour>
    <contour>
      <point x="804" y="673" type="curve" smooth="yes"/>
      <point x="804" y="302"/>
      <point x="716" y="155"/>
      <point x="568" y="155" type="curve" smooth="yes"/>
      <point x="418" y="155"/>
      <point x="332" y="302"/>
      <point x="332" y="673" type="curve" smooth="yes"/>
      <point x="332" y="1045"/>
      <point x="418" y="1187"/>
      <point x="568" y="1187" type="curve" smooth="yes"/>
      <point x="716" y="1187"/>
      <point x="804" y="1045"/>
    </contour>
  </outline>
</glyph>
<glyph name="zero.tnum" format="1">
  <advance width="1042"/>
  <outline>
    <contour>
      <point x="85" y="590" type="curve" name="hr00" smooth="yes"/>
      <point x="85" y="183"/>
      <point x="252" y="-25"/>
      <point x="521" y="-25" type="curve" smooth="yes"/>
      <point x="788" y="-25"/>
      <point x="958" y="183"/>
      <point x="958" y="590" type="curve" smooth="yes"/>
      <point x="958" y="997"/>
      <point x="788" y="1203"/>
      <point x="521" y="1203" type="curve" smooth="yes"/>
      <point x="252" y="1203"/>
      <point x="85" y="997"/>
    </contour>
    <contour>
      <point x="748" y="590" type="curve" smooth="yes"/>
      <point x="748" y="312"/>
      <point x="669" y="148"/>
      <point x="521" y="148" type="curve" smooth="yes"/>
      <point x="371" y="148"/>
      <point x="294" y="312"/>
      <point x="294" y="590" type="curve" smooth="yes"/>
      <point x="294" y="867"/>
      <point x="371" y="1030"/>
      <point x="521" y="1030" type="curve" smooth="yes"/>
      <point x="669" y="1030"/>
      <point x="748" y="867"/>
    </contour>
  </outline>
</glyph>
